<svg xmlns="http://www.w3.org/2000/svg" width="23" height="20" viewBox="0 0 23 20" fill="none">
  <path d="M0.37 10.4729C0.135 10.2429 0 9.93286 0 9.60286C0 9.27286 0.135 8.96286 0.37 8.73286L9.17 0.332859C9.65 -0.127141 10.41 -0.107141 10.865 0.372859C11.32 0.852859 11.305 1.61286 10.825 2.06786L4.195 8.40286H21.2C21.865 8.40286 22.4 8.93786 22.4 9.60286C22.4 10.2679 21.865 10.8029 21.2 10.8029H4.195L10.83 17.1329C11.31 17.5929 11.325 18.3479 10.87 18.8279C10.415 19.3079 9.655 19.3229 9.175 18.8679L0.375 10.4679L0.37 10.4729Z" fill="#014796"/>
</svg>