<svg xmlns="http://www.w3.org/2000/svg" width="217" height="60" viewBox="0 0 217 60" fill="none">
  <path d="M92.6662 38.8991C90.9144 38.2253 90.0609 36.5184 90.0609 33.7784V7.99531C90.016 6.10875 90.4652 4.80612 91.4534 4.04251C92.3068 3.41365 93.834 3.05431 96.035 3.00939V1.39233H73.2615V3.05431C75.4625 3.09923 76.9897 3.45857 77.7982 4.08743C78.7415 4.85104 79.1907 6.15367 79.2356 7.99531V15.0026H63.2447V8.26482C63.2447 7.32154 63.3795 6.42318 63.649 5.56973C64.0982 3.95267 65.9398 3.14415 69.2189 3.05431V1.39233H46.5801H46.4453V3.05431C46.4902 3.05431 46.5352 3.05431 46.5801 3.05431C48.9158 3.05431 50.5329 3.50349 51.3414 4.40186C52.0601 5.16547 52.4644 6.64777 52.4644 8.80384V34.3174C52.4194 36.3387 51.9703 37.6863 51.1617 38.36C50.3532 39.0338 48.7811 39.3932 46.4902 39.4381V41.1001H67.6467V39.4381C65.0864 39.2584 65.1313 38.8541 64.5024 38.2253C63.6939 37.4168 63.2897 35.9794 63.2897 34.003V21.0216L61.6726 20.8419L71.2851 16.7993L80.8976 20.8419L79.2356 21.0216V33.7784C79.1907 35.9345 78.8314 37.4168 78.1127 38.1804C77.394 38.944 77.394 39.3932 74.8786 39.3932V41.0551H96.035V39.4381L94.7324 39.3932C94.0586 39.3932 93.3399 39.2135 92.6662 38.8991Z" fill="white"/>
  <path d="M27.7595 1.39257V3.05455L30.5444 3.14439C31.7123 3.23422 32.431 3.4139 32.8352 3.77324L33.1047 4.17751L33.2395 4.67161C33.2395 5.48013 32.2962 6.78276 30.3198 8.57949L25.4237 13.0713L16.6197 20.8871V8.17523C16.6197 6.24374 17.0689 4.94112 17.9673 4.17751C18.8207 3.45881 20.348 3.05455 22.549 3.00963V1.39257H0V3.05455C2.11116 3.05455 3.63838 3.4139 4.53674 4.13259C5.43511 4.85128 5.88429 6.19883 5.92921 8.17523V34.7668C5.92921 36.5186 5.43511 37.7314 4.40199 38.495C3.54854 39.079 2.11116 39.3934 0 39.3934V41.0554H22.549V39.4383L20.3929 39.2586C18.2817 38.9891 17.0689 37.9111 16.7994 35.9796C16.6647 35.3957 16.6197 34.8117 16.6197 34.138V23.8068L16.7994 22.7737C16.7994 22.7737 43.5258 51.8807 48.0176 55.1148C52.0602 58.3489 54.1265 60.1007 60.4599 59.921C68.1859 59.6964 73.7557 53.1384 74.0252 46.1311H74.0702V26.996H68.6351V45.637C68.3206 51.701 64.8619 53.1384 60.999 53.0036C57.3157 52.8689 55.8783 51.162 53.4976 48.961C49.0507 44.8734 44.6038 39.7977 44.2894 39.4383L25.1093 17.7428C25.1093 17.7428 37.7313 5.48013 40.0671 4.35718C41.3697 3.72832 42.9418 3.32406 44.9182 3.14439V1.34766H27.7595V1.39257Z" fill="white"/>
  <path d="M135.743 31.3979L133.317 33.4642C129.185 36.7881 124.648 38.4052 119.797 38.3602C118.225 38.3602 116.697 38.1806 115.26 37.8212C114.137 37.5068 113.059 37.1025 112.116 36.5186C107.669 34.0481 105.468 28.8825 105.513 21.1116C105.468 14.4188 106.815 9.61257 109.421 6.64797C109.96 6.01911 110.723 5.43518 111.666 4.85124C113.553 3.68336 115.754 3.09943 118.18 3.05451C119.437 3.05451 120.74 3.23418 122.087 3.59353C123.705 3.99779 125.232 4.67157 126.714 5.52501C128.376 6.51321 129.903 7.72601 131.206 9.20831C132.419 10.5559 133.317 11.9932 133.991 13.5205L134.44 14.6434H136.461V0.943352H134.485L134.305 1.48237L134.081 1.97647L133.721 2.51549L133.362 2.82992C132.778 3.18926 132.149 3.36894 131.475 3.32402C130.936 3.32402 130.442 3.23418 129.948 3.09943L126.489 2.11123C123.57 1.25778 120.65 0.853516 117.73 0.853516C113.957 0.853516 110.229 1.57221 106.636 2.96467C103.042 4.35714 100.122 6.28862 97.8766 8.75912C96.3493 10.4211 95.1815 12.2627 94.4179 14.329C93.5644 16.53 93.1152 18.8208 93.1152 21.2464C93.1602 27.3553 95.451 32.2064 100.033 35.8897C104.749 39.7078 110.723 41.5944 117.955 41.5494C124.693 41.5944 130.532 39.4832 135.428 35.171L137.719 32.9701L135.743 31.3979Z" fill="white"/>
  <path d="M143.828 0H142.525V41.4146H143.828V0Z" fill="white"/>
  <path d="M155.687 12.5772H153.666C153.711 12.5323 153.711 12.4874 153.755 12.3975C153.755 12.3077 153.8 12.2628 153.8 12.1729C153.8 12.0382 153.755 11.9034 153.666 11.7687L151.285 8.08537L150.566 8.84898V11.4992C150.566 11.9034 150.701 12.2628 150.926 12.5772H149.084C149.219 12.3975 149.309 12.2178 149.398 12.0382C149.443 11.8585 149.488 11.6788 149.488 11.4992V5.2106C149.488 4.94109 149.488 4.7165 149.443 4.58175C149.398 4.44699 149.353 4.26732 149.219 4.13256H150.926C150.701 4.40207 150.566 4.76142 150.566 5.16568V7.9057L152.677 5.56995C152.947 5.30044 153.082 5.07585 153.216 4.94109C153.306 4.80634 153.351 4.62666 153.351 4.53683C153.351 4.44699 153.351 4.31224 153.306 4.17748C153.306 4.17748 153.306 4.13256 153.261 4.08765H155.103C154.878 4.2224 154.699 4.35716 154.564 4.44699C154.429 4.58175 154.205 4.76142 153.935 5.07585L152.004 7.18701L154.654 11.3195C154.878 11.6339 155.013 11.8585 155.193 12.0382C155.283 12.2628 155.462 12.4424 155.687 12.5772Z" fill="white"/>
  <path d="M155.867 12.6221H153.576L153.666 12.5323C153.711 12.4874 153.711 12.4424 153.711 12.3975C153.711 12.3526 153.755 12.2628 153.755 12.2178C153.755 12.0831 153.711 11.9483 153.621 11.8136L151.285 8.17521L150.656 8.8939V11.4992C150.656 11.9034 150.791 12.2178 151.015 12.5323L151.105 12.6221H149.039L149.129 12.5323C149.264 12.3975 149.353 12.2178 149.398 12.0382C149.443 11.8585 149.488 11.6788 149.488 11.4992V5.2106C149.488 4.94109 149.488 4.7165 149.443 4.58175C149.398 4.44699 149.353 4.31224 149.219 4.17748L149.129 4.08765H151.105L151.015 4.17748C150.791 4.44699 150.656 4.80634 150.656 5.2106V7.81586L152.677 5.61487C152.902 5.34536 153.082 5.12077 153.172 4.98601C153.261 4.85126 153.306 4.7165 153.306 4.58175C153.306 4.49191 153.306 4.35716 153.261 4.2224C153.261 4.2224 153.261 4.2224 153.261 4.17748L153.216 4.08765H155.328L155.148 4.17748C154.923 4.31224 154.744 4.44699 154.609 4.53683C154.474 4.67158 154.25 4.85126 153.98 5.16568L152.094 7.23192L154.699 11.3195C154.878 11.6339 155.058 11.8585 155.238 11.9933C155.373 12.128 155.552 12.3077 155.777 12.4424L155.867 12.6221ZM153.8 12.4874H155.552C155.417 12.3975 155.283 12.2628 155.148 12.128C155.013 11.9483 154.834 11.7237 154.609 11.4093L151.959 7.23192L152.004 7.18701L153.935 5.07585C154.205 4.76142 154.429 4.53683 154.564 4.44699C154.654 4.35716 154.789 4.26732 154.968 4.17748H153.351C153.396 4.31224 153.396 4.44699 153.396 4.53683C153.396 4.67158 153.351 4.80634 153.261 4.98601C153.172 5.16568 152.992 5.34536 152.722 5.61487L150.521 8.04045V5.16568C150.521 4.76142 150.611 4.44699 150.836 4.17748H149.309C149.398 4.31224 149.443 4.40207 149.488 4.53683C149.533 4.7165 149.533 4.89617 149.533 5.16568V11.4542C149.533 11.6339 149.488 11.8136 149.443 11.9933C149.398 12.1729 149.309 12.3077 149.219 12.4424H150.836C150.611 12.128 150.521 11.8136 150.521 11.4542V8.80406L151.285 7.95061L151.33 7.99553L153.711 11.6788C153.8 11.8136 153.845 11.9483 153.845 12.128C153.845 12.2178 153.845 12.2628 153.8 12.3526C153.8 12.4424 153.8 12.4874 153.8 12.4874Z" fill="white"/>
  <path d="M162.694 8.1753H157.304C157.304 8.31006 157.259 8.44481 157.259 8.62449C157.259 8.80416 157.214 8.93891 157.214 9.07367C157.214 10.1068 157.439 10.9153 157.933 11.4543C158.382 11.9934 158.966 12.2629 159.73 12.2629C160.403 12.2629 161.077 11.9934 161.706 11.4993C161.931 11.3196 162.155 11.095 162.425 10.7356L162.2 11.8586C161.931 12.0383 161.706 12.2179 161.526 12.3078C160.942 12.5773 160.359 12.757 159.73 12.757C158.652 12.757 157.798 12.3976 157.169 11.6789C156.541 10.9602 156.226 10.0619 156.226 8.93891C156.226 7.86088 156.585 6.96251 157.259 6.28874C157.933 5.61497 158.742 5.30054 159.73 5.30054C160.538 5.30054 161.257 5.57005 161.841 6.10906C162.38 6.693 162.694 7.36678 162.694 8.1753ZM161.437 7.1871C161.437 6.87268 161.302 6.55825 160.987 6.28874C160.673 5.97431 160.224 5.79464 159.73 5.79464C158.876 5.79464 158.247 6.10907 157.798 6.73792C157.663 6.96251 157.529 7.27694 157.349 7.6812H160.987C161.257 7.6812 161.437 7.50153 161.437 7.1871Z" fill="white"/>
  <path d="M159.685 12.8468C158.607 12.8468 157.708 12.4875 157.08 11.7688C156.451 11.0501 156.136 10.1068 156.136 8.98383C156.136 7.9058 156.496 6.96251 157.214 6.28874C157.888 5.61497 158.741 5.30054 159.73 5.30054C160.583 5.30054 161.302 5.57005 161.886 6.10906C162.47 6.64808 162.784 7.36678 162.784 8.1753V8.22022H157.349C157.349 8.35498 157.304 8.48973 157.304 8.62449C157.304 8.80416 157.259 8.93891 157.259 9.07367C157.259 10.1068 157.484 10.8704 157.978 11.4543C158.427 11.9484 159.011 12.2179 159.73 12.2179C160.403 12.2179 161.077 11.9484 161.661 11.4993C161.886 11.3196 162.11 11.095 162.38 10.7806L162.47 10.8255L162.245 11.9484C161.976 12.1281 161.751 12.3078 161.571 12.3976C160.898 12.712 160.314 12.8468 159.685 12.8468ZM159.685 5.39037C158.741 5.39037 157.888 5.7048 157.259 6.33366C156.585 7.00743 156.226 7.9058 156.226 8.93891C156.226 10.017 156.54 10.9153 157.169 11.634C157.798 12.3078 158.652 12.6671 159.685 12.6671C160.269 12.6671 160.853 12.5324 161.437 12.2629C161.616 12.173 161.841 12.0383 162.11 11.8586L162.29 11.0052C162.065 11.2747 161.886 11.4543 161.706 11.5891C161.077 12.0832 160.403 12.3527 159.73 12.3527C158.966 12.3527 158.337 12.0832 157.888 11.5442C157.394 10.9602 157.169 10.1517 157.169 9.11859C157.169 8.98383 157.169 8.80416 157.214 8.62449C157.214 8.44481 157.259 8.31006 157.259 8.1753V8.13039H162.649C162.649 7.36678 162.335 6.73792 161.796 6.1989C161.212 5.65988 160.493 5.39037 159.685 5.39037ZM160.987 7.72612H157.304L157.349 7.63629C157.484 7.1871 157.619 6.87268 157.798 6.693C158.247 6.06415 158.921 5.74972 159.775 5.74972C160.314 5.74972 160.763 5.92939 161.077 6.28874C161.392 6.60317 161.526 6.91759 161.526 7.23202C161.482 7.54645 161.302 7.72612 160.987 7.72612ZM157.439 7.59137H160.987C161.257 7.59137 161.392 7.45661 161.392 7.1871C161.392 6.87268 161.257 6.60317 160.987 6.33366C160.673 6.01923 160.269 5.83956 159.775 5.83956C158.966 5.83956 158.337 6.15398 157.888 6.73792C157.708 6.91759 157.574 7.23202 157.439 7.59137Z" fill="white"/>
  <path d="M170.061 12.5773H168.758C168.758 12.3078 168.758 11.9035 168.803 11.4543C168.848 10.9602 168.848 10.6458 168.848 10.4661V7.77104C168.848 7.1871 168.713 6.73792 168.444 6.42349C168.174 6.10907 167.815 5.92939 167.321 5.92939C166.647 5.92939 166.153 6.06415 165.794 6.37857C165.39 6.73792 165.165 7.27694 165.165 8.04055V11.4993C165.165 11.8137 165.165 11.9934 165.21 12.1281C165.255 12.2629 165.3 12.3976 165.434 12.5773H163.952C164.132 12.3078 164.222 11.9484 164.222 11.4993V6.60317C164.222 6.24382 164.222 6.01923 164.177 5.88447C164.177 5.74972 164.087 5.61496 163.997 5.43529H165.165V6.28874C165.659 5.61497 166.423 5.30054 167.366 5.30054C168.983 5.30054 169.747 6.01923 169.747 7.50153V11.4543C169.747 11.7688 169.747 11.9934 169.792 12.1281C169.881 12.2629 169.971 12.3976 170.061 12.5773Z" fill="white"/>
  <path d="M170.196 12.6222H168.713V12.5773C168.713 12.3078 168.713 11.9035 168.758 11.4543C168.803 11.0052 168.803 10.6458 168.803 10.4661V7.77104C168.803 7.23202 168.669 6.78284 168.444 6.46841C168.219 6.15398 167.815 6.01923 167.366 6.01923C166.692 6.01923 166.198 6.15398 165.839 6.46841C165.434 6.78284 165.255 7.32186 165.255 8.08547V11.5442C165.255 11.8137 165.255 12.0383 165.3 12.173C165.345 12.3078 165.39 12.4425 165.524 12.5773L165.569 12.6671H163.907L163.952 12.5773C164.132 12.3078 164.222 11.9484 164.222 11.5442V6.60317C164.222 6.24382 164.222 6.01923 164.177 5.92939C164.177 5.79464 164.087 5.65988 163.997 5.52513L163.952 5.43529H165.3V6.1989C165.839 5.61496 166.557 5.30054 167.456 5.30054C169.073 5.30054 169.926 6.06415 169.926 7.54645V11.4993C169.926 11.8137 169.926 12.0383 169.971 12.173C170.016 12.2629 170.061 12.3976 170.196 12.5773V12.6222ZM168.848 12.4875H169.971C169.881 12.3527 169.836 12.2629 169.792 12.1281C169.747 11.9934 169.747 11.7688 169.747 11.4543V7.54645C169.747 6.10907 168.983 5.39037 167.411 5.39037C166.468 5.39037 165.749 5.7048 165.255 6.37857L165.165 6.51333V5.52513H164.132C164.222 5.65988 164.267 5.79464 164.267 5.88447C164.267 6.01923 164.311 6.24382 164.311 6.60317V11.4543C164.311 11.8586 164.222 12.2179 164.087 12.4875H165.345C165.255 12.3527 165.21 12.2179 165.165 12.1281C165.12 11.9934 165.12 11.7688 165.12 11.4993V8.04055C165.12 7.27694 165.345 6.693 165.749 6.37857C166.108 6.06415 166.647 5.92939 167.321 5.92939C167.815 5.92939 168.219 6.10907 168.489 6.42349C168.758 6.73792 168.893 7.23202 168.893 7.81596V10.5111C168.893 10.6907 168.893 11.0052 168.848 11.4993C168.848 11.8586 168.848 12.2179 168.848 12.4875Z" fill="white"/>
  <path d="M174.193 12.3076C174.103 12.3975 174.013 12.4424 173.924 12.4873C173.654 12.6221 173.385 12.7119 173.025 12.7119C172.262 12.7119 171.857 12.0381 171.857 10.7355V6.01909H171.318L171.453 5.48007H171.857V4.04269L172.801 3.59351V5.43515H174.148L174.013 5.97417H172.801V10.9601C172.801 11.4093 172.846 11.6788 172.98 11.8585C173.07 11.9932 173.205 12.0381 173.385 12.0381C173.609 12.0381 173.834 11.9483 174.013 11.7686C174.058 11.7237 174.148 11.6339 174.193 11.4991V12.3076Z" fill="white"/>
  <path d="M173.025 12.7568C172.217 12.7568 171.812 12.083 171.812 10.6906V6.064H171.229L171.408 5.39023H171.812V3.99776L172.846 3.50366V5.39023H174.193L174.058 6.064H172.846V11.005C172.846 11.4093 172.89 11.7237 173.025 11.8585C173.115 11.9483 173.205 12.0381 173.385 12.0381C173.609 12.0381 173.789 11.9483 173.969 11.7686C174.013 11.7237 174.103 11.6339 174.148 11.4991L174.238 11.3194V12.3526C174.148 12.4424 174.058 12.5322 173.969 12.5771C173.654 12.7119 173.385 12.7568 173.025 12.7568ZM171.408 5.97417H171.947V10.7355C171.947 12.0381 172.307 12.667 173.07 12.667C173.385 12.667 173.654 12.5771 173.924 12.4873C174.013 12.4424 174.058 12.3975 174.148 12.3076V11.7237C174.103 11.7686 174.058 11.8135 174.058 11.8585C173.879 12.0381 173.654 12.1729 173.385 12.1729C173.205 12.1729 173.025 12.083 172.935 11.9483C172.801 11.7686 172.756 11.4542 172.756 11.005V5.97417H173.969L174.058 5.52498H172.711V3.68333L171.902 4.0876V5.52498H171.453L171.408 5.97417Z" fill="white"/>
  <path d="M181.605 12.5771H180.347V11.5889C179.943 12.3525 179.179 12.7567 178.146 12.7567C177.293 12.7567 176.709 12.5771 176.35 12.2177C175.945 11.8135 175.721 11.0948 175.721 10.1066V6.64786C175.721 6.42327 175.721 6.19868 175.676 6.06392C175.631 5.92917 175.586 5.74949 175.451 5.5249H176.664V10.1066C176.664 10.96 176.799 11.499 177.113 11.8135C177.338 12.038 177.787 12.1728 178.416 12.1728C179.045 12.1728 179.494 11.9931 179.853 11.6338C180.212 11.2744 180.347 10.7803 180.347 10.1066V6.64786C180.347 6.19868 180.257 5.83933 180.123 5.5249H181.291V11.5439C181.291 11.8584 181.291 12.083 181.335 12.1728C181.38 12.2626 181.47 12.3974 181.605 12.5771Z" fill="white"/>
  <path d="M178.146 12.7567C177.293 12.7567 176.664 12.5771 176.305 12.2177C175.9 11.8134 175.676 11.0948 175.676 10.0616V6.60293C175.676 6.37834 175.676 6.19867 175.631 6.019C175.586 5.88424 175.541 5.70457 175.406 5.5249L175.361 5.43506H176.709V10.0616C176.709 10.8702 176.844 11.4541 177.113 11.7236C177.338 11.9482 177.787 12.083 178.416 12.083C179 12.083 179.494 11.9033 179.808 11.5439C180.123 11.1846 180.302 10.6905 180.302 10.0616V6.60293C180.302 6.15375 180.212 5.7944 180.078 5.5249L180.033 5.43506H181.38V11.499C181.38 11.8134 181.38 11.9931 181.425 12.1279C181.47 12.2626 181.56 12.3974 181.65 12.5321L181.74 12.622H180.302V11.7685C179.853 12.4423 179.134 12.7567 178.146 12.7567ZM175.541 5.5249C175.631 5.70457 175.676 5.83932 175.721 5.97408C175.766 6.10883 175.766 6.33342 175.766 6.55801V10.0167C175.766 11.0049 175.945 11.7236 176.35 12.083C176.709 12.4423 177.293 12.5771 178.146 12.5771C179.179 12.5771 179.898 12.2177 180.302 11.4541L180.392 11.499V12.4872H181.47C181.38 12.3525 181.335 12.2626 181.291 12.1279C181.246 11.9931 181.246 11.7685 181.246 11.4541V5.5249H180.212C180.347 5.7944 180.437 6.15375 180.437 6.55801V10.0167C180.437 10.6905 180.257 11.1846 179.898 11.5889C179.539 11.9482 179.045 12.1728 178.416 12.1728C177.742 12.1728 177.293 12.038 177.068 11.7685C176.754 11.4541 176.619 10.8702 176.619 10.0167V5.5249H175.541Z" fill="white"/>
  <path d="M189.15 10.7356L188.926 11.9035C188.656 12.1281 188.432 12.2629 188.252 12.3527C187.668 12.6671 187.039 12.8019 186.41 12.8019C185.332 12.8019 184.479 12.3976 183.85 11.634C183.221 10.9153 182.952 10.017 182.952 8.93891C182.952 7.9058 183.311 7.05235 183.94 6.33366C184.614 5.65988 185.467 5.30054 186.5 5.30054C186.994 5.30054 187.533 5.39037 188.072 5.52513C188.252 5.57005 188.477 5.65988 188.746 5.74972V7.1871C188.522 6.87268 188.342 6.60317 188.207 6.46841C187.713 5.97431 187.129 5.74972 186.455 5.74972C185.737 5.74972 185.153 6.01923 184.703 6.55825C184.209 7.14218 183.94 7.90579 183.94 8.894C183.94 9.8822 184.12 10.6458 184.524 11.2747C184.973 11.9484 185.557 12.3078 186.365 12.3078C187.084 12.3078 187.758 12.0383 188.387 11.4993C188.611 11.3645 188.881 11.095 189.15 10.7356Z" fill="white"/>
  <path d="M186.366 12.8468C185.288 12.8468 184.434 12.4425 183.761 11.6789C183.132 10.9153 182.817 10.0169 182.817 8.93891C182.817 7.90579 183.177 7.00743 183.85 6.28874C184.524 5.57004 185.423 5.25562 186.456 5.25562C186.995 5.25562 187.534 5.34545 188.073 5.52512C188.252 5.57004 188.477 5.65988 188.747 5.79463H188.792V7.45661L188.702 7.27694C188.522 6.96251 188.297 6.73792 188.163 6.55824C187.669 6.10906 187.085 5.83955 186.456 5.83955C185.782 5.83955 185.198 6.10906 184.749 6.60316C184.255 7.1871 184.03 7.95071 184.03 8.89399C184.03 9.83728 184.21 10.6458 184.614 11.2747C185.018 11.9484 185.647 12.2629 186.411 12.2629C187.085 12.2629 187.758 11.9934 188.387 11.4543C188.612 11.2747 188.836 11.0051 189.106 10.6458L189.196 10.6907L188.926 11.8586C188.657 12.0832 188.432 12.2179 188.252 12.3078C187.669 12.712 187.04 12.8468 186.366 12.8468ZM186.501 5.39037C185.468 5.39037 184.614 5.74972 183.985 6.42349C183.311 7.09726 182.997 7.95071 182.997 8.98383C182.997 10.0169 183.311 10.9153 183.895 11.634C184.524 12.3976 185.378 12.757 186.411 12.757C187.04 12.757 187.669 12.6222 188.252 12.3078C188.432 12.2179 188.657 12.0832 188.926 11.8586L189.106 10.9602C188.881 11.2297 188.657 11.4543 188.477 11.5891C187.848 12.1281 187.13 12.3976 186.411 12.3976C185.602 12.3976 184.973 12.0383 184.524 11.3645C184.12 10.7356 183.94 9.92711 183.94 8.93891C183.94 7.95071 184.21 7.14218 184.704 6.55824C185.153 6.01923 185.782 5.74972 186.501 5.74972C187.174 5.74972 187.803 5.97431 188.297 6.46841C188.432 6.60316 188.567 6.78284 188.747 7.05234V5.83955C188.522 5.74972 188.297 5.65988 188.118 5.61496C187.534 5.43529 186.995 5.39037 186.501 5.39037Z" fill="white"/>
  <path d="M196.068 12.5772H194.541L192.879 10.5559L191.936 9.2982L191.442 8.66934V11.4992C191.442 11.7687 191.442 11.9933 191.487 12.128C191.532 12.2628 191.577 12.3976 191.711 12.5772H190.229C190.364 12.4425 190.409 12.2628 190.454 12.128C190.499 11.9933 190.499 11.7687 190.499 11.4992V2.6503C190.499 2.38079 190.499 2.1562 190.454 2.02144C190.409 1.84177 190.364 1.70702 190.229 1.52734H191.397V8.22016L192.071 7.63622C192.969 6.8277 193.418 6.19884 193.418 5.74966C193.418 5.65982 193.418 5.56998 193.418 5.52507H195.215C194.945 5.74966 194.721 5.92933 194.586 6.01917C194.137 6.37851 193.822 6.64802 193.688 6.82769L192.25 8.22016L193.733 10.1516C194.047 10.5559 194.361 10.9153 194.676 11.2746C194.99 11.6339 195.35 11.9484 195.664 12.2628L196.068 12.5772Z" fill="white"/>
  <path d="M196.203 12.6221H194.541L192.879 10.6008L191.532 8.84901V11.5441C191.532 11.8136 191.532 12.0382 191.577 12.173C191.621 12.3077 191.666 12.4425 191.801 12.6221L191.846 12.712H190.139L190.184 12.6221C190.274 12.4874 190.364 12.3077 190.409 12.173C190.454 12.0382 190.454 11.8136 190.454 11.5441V2.65029C190.454 2.38078 190.454 2.15619 190.409 2.02144C190.364 1.88668 190.319 1.70701 190.229 1.52734L190.184 1.4375H191.487V8.0854L192.071 7.54638C192.924 6.78277 193.373 6.15391 193.373 5.70473V5.43522H195.35L195.215 5.52506C194.901 5.74965 194.721 5.92932 194.586 6.01916C194.137 6.37851 193.822 6.64802 193.688 6.82769L192.295 8.17523L193.733 10.0618C194.047 10.4661 194.361 10.8254 194.676 11.1398C195.035 11.4992 195.35 11.8585 195.664 12.128L196.203 12.6221ZM194.541 12.4874H195.889L195.619 12.2628C195.305 11.9484 194.945 11.6339 194.631 11.2746C194.317 10.9602 194.002 10.6008 193.688 10.1516L192.16 8.17523L193.643 6.73785C193.822 6.55818 194.137 6.28867 194.541 5.92932C194.676 5.83949 194.811 5.70473 195.035 5.52506H193.463V5.70473C193.463 6.19883 193.014 6.82769 192.116 7.63622L191.352 8.30999V1.52734H190.364C190.454 1.66209 190.499 1.84176 190.543 1.97652C190.588 2.15619 190.588 2.38078 190.588 2.65029V11.4992C190.588 11.7687 190.588 11.9933 190.543 12.128C190.499 12.2628 190.454 12.3975 190.364 12.4874H191.621C191.532 12.3526 191.487 12.2179 191.442 12.128C191.397 11.9933 191.397 11.7687 191.397 11.4992V8.48966L192.924 10.511L194.541 12.4874Z" fill="white"/>
  <path d="M203.255 5.48022C202.941 5.74973 202.671 6.154 202.537 6.60318L199.797 14.3291C199.572 15.0029 199.213 15.5868 198.808 15.9911C198.359 16.4852 197.865 16.7098 197.281 16.7098C197.012 16.7098 196.787 16.6649 196.562 16.575C196.518 16.575 196.473 16.5301 196.428 16.4852V15.2724C196.518 15.4072 196.607 15.497 196.697 15.5868C196.967 15.8114 197.236 15.9013 197.551 15.9013C198.09 15.9013 198.539 15.6317 198.898 15.0927C199.258 14.5537 199.437 13.8799 199.437 13.0714C199.437 12.757 199.392 12.5324 199.347 12.3078C199.302 12.0832 199.168 11.7239 198.898 11.1848L196.922 6.6481C196.832 6.42351 196.697 6.19892 196.518 6.01924C196.338 5.83957 196.158 5.6599 195.889 5.57006H197.73C197.73 5.70482 197.685 5.79465 197.685 5.83957C197.685 5.97433 197.685 6.06416 197.73 6.19892C197.775 6.33367 197.82 6.46843 197.91 6.69302L200.066 11.7688L201.908 6.6481C201.953 6.51334 201.998 6.37859 201.998 6.33367C201.998 6.28875 201.998 6.19892 201.998 6.154C201.998 5.92941 201.908 5.74973 201.683 5.57006H203.255V5.48022Z" fill="white"/>
  <path d="M197.281 16.7547C197.012 16.7547 196.787 16.7098 196.518 16.6199C196.473 16.6199 196.428 16.575 196.383 16.5301H196.338V15.0927L196.428 15.2275C196.518 15.3622 196.607 15.4521 196.697 15.497C196.922 15.6767 197.191 15.8114 197.506 15.8114C198 15.8114 198.449 15.5419 198.808 15.0029C199.168 14.4639 199.347 13.7901 199.347 13.0265C199.347 12.7121 199.302 12.4875 199.258 12.2629C199.213 12.0832 199.078 11.6789 198.808 11.1399L196.922 6.60317C196.832 6.37858 196.697 6.15399 196.518 5.97432C196.338 5.79464 196.158 5.65989 195.934 5.52514L195.979 5.4353H197.91V5.48022C197.91 5.61497 197.865 5.70481 197.865 5.74973C197.865 5.88448 197.865 5.97432 197.91 6.10907C197.955 6.24383 198 6.37858 198.09 6.55825L200.201 11.4993L201.998 6.51334C202.042 6.37858 202.087 6.28875 202.087 6.19891C202.087 6.10907 202.087 6.06415 202.087 6.01924C202.087 5.79464 201.998 5.61497 201.818 5.48022L201.683 5.39038H203.435L203.3 5.48022C202.986 5.74973 202.761 6.10907 202.582 6.55825L199.841 14.2842C199.617 15.0029 199.258 15.5419 198.853 15.9911C198.359 16.4852 197.865 16.7547 197.281 16.7547ZM196.473 16.4403C196.518 16.4852 196.562 16.4852 196.562 16.4852C196.787 16.575 197.012 16.6199 197.281 16.6199C197.82 16.6199 198.314 16.3953 198.763 15.9462C199.168 15.5419 199.482 15.0029 199.752 14.2842L202.492 6.55825C202.626 6.15399 202.851 5.79464 203.121 5.52514H201.953C202.087 5.65989 202.177 5.83956 202.177 6.06415C202.177 6.15399 202.177 6.19891 202.177 6.28875C202.177 6.33366 202.132 6.4235 202.087 6.60317L200.201 11.8586L198 6.64809C197.91 6.46842 197.865 6.28875 197.82 6.15399C197.775 6.01924 197.775 5.9294 197.775 5.79464C197.775 5.74973 197.775 5.65989 197.775 5.57005H196.203C196.383 5.65989 196.518 5.79464 196.652 5.9294C196.832 6.10907 196.967 6.33366 197.057 6.60317L199.033 11.1399C199.258 11.6789 199.437 12.0383 199.482 12.2629C199.527 12.4875 199.572 12.7121 199.572 13.0265C199.572 13.835 199.392 14.5088 199.033 15.0927C198.674 15.6767 198.18 15.9462 197.64 15.9462C197.326 15.9462 197.012 15.8563 196.742 15.6317C196.697 15.5868 196.607 15.5419 196.562 15.4521V16.4403H196.473Z" fill="white"/>
  <path d="M155.912 25.334H154.16C154.294 25.1993 154.339 25.0196 154.429 24.795C154.474 24.6153 154.519 24.4357 154.519 24.256V21.1117H150.521V24.256C150.521 24.6603 150.656 25.0196 150.926 25.334H149.084C149.174 25.1993 149.264 25.0196 149.353 24.8399C149.443 24.6153 149.443 24.4357 149.443 24.256V18.0124C149.443 17.6081 149.353 17.2488 149.129 16.9343H150.836C150.746 17.0691 150.656 17.2488 150.611 17.4284C150.566 17.653 150.521 17.8327 150.521 18.0124V20.5727H154.519V18.0124C154.519 17.6081 154.429 17.2038 154.25 16.9343H155.956C155.732 17.3386 155.642 17.6979 155.642 18.0573V24.3009C155.642 24.5255 155.687 24.7501 155.732 24.9298C155.732 25.0196 155.822 25.1993 155.912 25.334Z" fill="white"/>
  <path d="M156.046 25.3789H154.07L154.115 25.2891C154.205 25.1544 154.294 24.9747 154.339 24.795C154.384 24.6153 154.429 24.4357 154.429 24.256V21.1566H150.566V24.256C150.566 24.6603 150.701 25.0196 150.971 25.2891L151.06 25.3789H148.949L149.039 25.2891C149.129 25.1544 149.219 25.0196 149.309 24.795C149.398 24.6153 149.398 24.3907 149.398 24.256V18.0124C149.398 17.6081 149.309 17.2487 149.084 16.9343L149.039 16.8445H150.926L150.881 16.9343C150.791 17.0691 150.746 17.2487 150.656 17.4284C150.611 17.6081 150.566 17.8327 150.566 17.9674V20.4379H154.429V17.9674C154.429 17.5632 154.339 17.2038 154.16 16.8894L154.115 16.7996H156.001L155.956 16.8894C155.732 17.2487 155.642 17.6081 155.642 17.9674V24.2111C155.642 24.4357 155.687 24.6603 155.732 24.795C155.777 24.9747 155.867 25.1094 155.956 25.2442L156.046 25.3789ZM154.294 25.2442H155.822C155.732 25.1094 155.687 25.0196 155.642 24.8399C155.597 24.6603 155.552 24.4357 155.552 24.2111V18.0124C155.552 17.6979 155.642 17.3386 155.822 16.9792H154.294C154.474 17.2937 154.519 17.6081 154.519 18.0124V20.5727H150.432V17.9674C150.432 17.7878 150.476 17.5632 150.521 17.3835C150.566 17.2038 150.656 17.0691 150.701 16.9343H149.219C149.398 17.2487 149.488 17.5632 149.488 17.9674V24.2111C149.488 24.3907 149.443 24.6153 149.353 24.795C149.309 24.9747 149.219 25.1094 149.129 25.1993H150.746C150.521 24.9298 150.387 24.5704 150.387 24.2111V21.0219H154.474V24.2111C154.474 24.3907 154.429 24.5704 154.384 24.7501C154.429 24.9747 154.384 25.1094 154.294 25.2442Z" fill="white"/>
  <path d="M164.581 21.7856C164.581 22.9085 164.222 23.8069 163.458 24.5256C162.739 25.1994 161.886 25.5138 160.853 25.5138C159.82 25.5138 158.921 25.1545 158.203 24.4807C157.484 23.762 157.125 22.9085 157.125 21.8305C157.125 20.7974 157.484 19.899 158.203 19.1354C158.921 18.4167 159.82 18.0125 160.943 18.0125C161.886 18.0125 162.739 18.3718 163.458 19.0905C164.177 19.8541 164.581 20.7525 164.581 21.7856ZM163.503 22.0102C163.503 21.1118 163.278 20.3482 162.784 19.6744C162.29 18.9108 161.616 18.5515 160.853 18.5515C159.999 18.5515 159.37 18.8659 158.876 19.4498C158.382 20.0338 158.158 20.8423 158.158 21.7856C158.158 22.7289 158.427 23.5823 159.011 24.2112C159.55 24.7951 160.179 25.1095 160.853 25.1095C161.571 25.1095 162.155 24.84 162.649 24.301C163.233 23.7171 163.503 22.9535 163.503 22.0102Z" fill="white"/>
  <path d="M160.853 25.5587C159.82 25.5587 158.876 25.1994 158.158 24.4807C157.439 23.762 157.08 22.8636 157.08 21.8305C157.08 20.7525 157.439 19.8541 158.158 19.0905C158.876 18.3269 159.82 17.9675 160.943 17.9675C161.931 17.9675 162.784 18.3269 163.503 19.0456C164.267 19.8092 164.626 20.7075 164.626 21.7856C164.626 22.9085 164.222 23.8518 163.503 24.5705C162.739 25.2443 161.886 25.5587 160.853 25.5587ZM160.898 18.1023C159.82 18.1023 158.876 18.4616 158.203 19.1803C157.529 19.899 157.169 20.7974 157.169 21.8305C157.169 22.8636 157.529 23.7171 158.247 24.4358C158.966 25.1095 159.82 25.4689 160.853 25.4689C161.841 25.4689 162.694 25.1544 163.413 24.4807C164.132 23.8069 164.536 22.9085 164.536 21.7856C164.536 20.7525 164.177 19.8541 163.413 19.1354C162.694 18.4616 161.841 18.1023 160.898 18.1023ZM160.898 25.1544C160.179 25.1544 159.55 24.84 159.011 24.2112C158.427 23.5374 158.113 22.7289 158.113 21.7407C158.113 20.7525 158.337 19.9439 158.831 19.36C159.326 18.7761 159.999 18.4616 160.853 18.4616C161.661 18.4616 162.335 18.8659 162.829 19.6295C163.278 20.3033 163.548 21.1118 163.548 22.0102C163.548 22.9535 163.278 23.762 162.739 24.3459C162.245 24.8849 161.616 25.1544 160.898 25.1544ZM160.853 18.5964C160.044 18.5964 159.415 18.9108 158.921 19.4498C158.472 20.0338 158.203 20.7974 158.203 21.7407C158.203 22.6839 158.472 23.4925 159.056 24.1213C159.595 24.7053 160.179 25.0197 160.853 25.0197C161.571 25.0197 162.155 24.7502 162.605 24.2112C163.099 23.6272 163.368 22.9085 163.368 21.9653C163.368 21.1118 163.144 20.3033 162.694 19.6295C162.245 18.9557 161.616 18.5964 160.853 18.5964Z" fill="white"/>
  <path d="M171.723 25.3339H170.465V24.3457C170.061 25.1093 169.297 25.5136 168.264 25.5136C167.41 25.5136 166.827 25.3339 166.467 24.9746C166.063 24.5703 165.838 23.8516 165.838 22.8634V19.4047C165.838 19.1801 165.838 18.9555 165.793 18.8208C165.749 18.686 165.704 18.5063 165.569 18.2817H166.782V22.8185C166.782 23.6719 166.916 24.2109 167.231 24.5254C167.455 24.75 167.905 24.8847 168.533 24.8847C169.162 24.8847 169.611 24.705 169.971 24.3457C170.33 23.9864 170.465 23.4923 170.465 22.8185V19.3598C170.465 18.9106 170.375 18.5512 170.24 18.2368H171.408V24.2559C171.408 24.5703 171.408 24.7949 171.453 24.8847C171.498 25.0195 171.588 25.1542 171.723 25.3339Z" fill="white"/>
  <path d="M168.264 25.5136C167.41 25.5136 166.782 25.3339 166.422 24.9745C166.018 24.5703 165.793 23.8516 165.793 22.8185V19.3598C165.793 19.1352 165.793 18.9555 165.749 18.7758C165.704 18.6411 165.659 18.4614 165.524 18.2817L165.479 18.1919H166.827V22.8185C166.827 23.627 166.961 24.2109 167.231 24.4804C167.455 24.705 167.905 24.8398 168.533 24.8398C169.117 24.8398 169.611 24.6601 169.926 24.3008C170.24 23.9414 170.42 23.4473 170.42 22.8185V19.3598C170.42 18.9106 170.33 18.5512 170.195 18.2817L170.15 18.1919H171.498V24.2559C171.498 24.5703 171.498 24.75 171.543 24.8847C171.588 25.0195 171.678 25.1542 171.768 25.289L171.857 25.3788H170.42V24.5254C169.971 25.1991 169.252 25.5136 168.264 25.5136ZM165.659 18.2817C165.749 18.4614 165.793 18.5962 165.838 18.7309C165.883 18.8657 165.883 19.0903 165.883 19.3149V22.8185C165.883 23.8067 166.063 24.5254 166.467 24.8847C166.827 25.2441 167.41 25.3788 168.264 25.3788C169.297 25.3788 170.016 25.0195 170.42 24.2559L170.51 24.3008V25.2441H171.588C171.498 25.1093 171.453 25.0195 171.408 24.8847C171.363 24.75 171.363 24.5254 171.363 24.2109V18.2817H170.33C170.465 18.5512 170.555 18.9106 170.555 19.3149V22.8185C170.555 23.4922 170.375 23.9863 170.016 24.3906C169.656 24.75 169.162 24.9745 168.533 24.9745C167.905 24.9745 167.41 24.8398 167.186 24.5703C166.871 24.2559 166.737 23.6719 166.737 22.8185V18.2817H165.659Z" fill="white"/>
  <path d="M177.113 23.3126C177.113 23.9863 176.933 24.4804 176.574 24.8847C176.17 25.3339 175.541 25.5585 174.687 25.5585C174.148 25.5585 173.609 25.3788 172.98 24.9745V23.4473C173.385 24.0762 173.564 24.3906 173.609 24.3906C173.969 24.8398 174.418 25.0644 174.912 25.0644C175.361 25.0644 175.676 24.9296 175.9 24.705C176.125 24.4804 176.215 24.166 176.215 23.7617C176.215 23.2227 175.945 22.7735 175.406 22.4142C174.912 22.0998 174.418 21.8303 173.879 21.5158C173.34 21.1116 173.07 20.5725 173.07 19.8988C173.07 19.4047 173.295 18.9555 173.699 18.5961C174.148 18.2368 174.642 18.0571 175.271 18.0571C175.631 18.0571 176.035 18.102 176.394 18.1919C176.529 18.2368 176.664 18.2817 176.843 18.3716V19.6293C176.664 19.3148 176.529 19.0902 176.394 18.9106C176.125 18.6411 175.765 18.4614 175.361 18.4614C174.957 18.4614 174.642 18.5961 174.418 18.8207C174.193 19.0902 174.059 19.3598 174.059 19.7191C174.059 20.1234 174.328 20.5276 174.867 20.887C175.361 21.2014 175.855 21.5158 176.394 21.7853C176.843 22.2794 177.113 22.7286 177.113 23.3126Z" fill="white"/>
  <path d="M174.687 25.6034C174.148 25.6034 173.564 25.4237 172.936 25.0195H172.891V23.2676L172.98 23.4473C173.475 24.2109 173.564 24.3457 173.609 24.3906C173.969 24.7949 174.373 25.0195 174.867 25.0195C175.271 25.0195 175.586 24.9296 175.81 24.705C176.035 24.4804 176.125 24.166 176.125 23.8067C176.125 23.3126 175.855 22.8634 175.361 22.504C174.867 22.1896 174.373 21.9201 173.879 21.6057C173.295 21.1565 173.025 20.6175 173.025 19.9437C173.025 19.4047 173.25 18.9555 173.699 18.5961C174.148 18.2368 174.687 18.0571 175.316 18.0571C175.676 18.0571 176.08 18.102 176.439 18.1919C176.574 18.2368 176.709 18.2817 176.888 18.3716H176.933V19.6742L176.843 19.7191C176.664 19.4047 176.529 19.1801 176.394 19.0453C176.125 18.7758 175.81 18.6411 175.361 18.6411C174.957 18.6411 174.687 18.7758 174.463 19.0004C174.238 19.225 174.103 19.5394 174.103 19.8539C174.103 20.2581 174.373 20.6175 174.867 20.9768C175.361 21.2912 175.9 21.6057 176.349 21.8752C176.933 22.3244 177.203 22.8185 177.203 23.3575C177.203 24.0313 177.023 24.5703 176.619 24.9745C176.17 25.3788 175.496 25.6034 174.687 25.6034ZM172.98 24.9296C173.564 25.289 174.148 25.5136 174.642 25.5136C175.451 25.5136 176.08 25.289 176.484 24.8398C176.843 24.4804 177.023 23.9414 177.023 23.3126C177.023 22.7735 176.754 22.3244 176.215 21.9201C175.72 21.6506 175.226 21.3362 174.732 21.0217C174.193 20.6624 173.879 20.2581 173.879 19.8089C173.879 19.4496 174.014 19.1352 174.238 18.8657C174.508 18.5961 174.822 18.4614 175.226 18.4614C175.676 18.4614 176.035 18.5961 176.304 18.9106C176.394 19.0453 176.529 19.1801 176.664 19.4047V18.4165C176.484 18.3716 176.349 18.2817 176.259 18.2817C175.9 18.1919 175.541 18.147 175.181 18.147C174.598 18.147 174.059 18.3266 173.654 18.686C173.25 19.0453 173.025 19.4496 173.025 19.9437C173.025 20.5725 173.295 21.1116 173.834 21.5158C174.328 21.7853 174.822 22.0998 175.316 22.4142C175.855 22.7735 176.17 23.2676 176.17 23.8067C176.17 24.2109 176.035 24.5254 175.81 24.7949C175.586 25.0195 175.226 25.1542 174.777 25.1542C174.283 25.1542 173.834 24.9296 173.43 24.4804C173.43 24.4355 173.16 24.0762 172.936 23.7168V24.9296H172.98Z" fill="white"/>
  <path d="M179.988 25.3339H178.46C178.595 25.1991 178.685 25.0644 178.73 24.8847C178.775 24.75 178.82 24.5254 178.82 24.2559V19.3149C178.82 19.0453 178.82 18.8207 178.775 18.686C178.73 18.5512 178.685 18.4165 178.595 18.2368H179.763V24.2559C179.763 24.5703 179.763 24.7949 179.808 24.8847C179.853 25.0195 179.898 25.1542 179.988 25.3339ZM179.988 15.8561C179.988 16.0358 179.943 16.1706 179.808 16.3053C179.673 16.4401 179.494 16.485 179.314 16.485C179.134 16.485 178.999 16.4401 178.865 16.3053C178.73 16.1706 178.685 16.0358 178.685 15.8561C178.685 15.6765 178.73 15.4968 178.865 15.362C178.999 15.2273 179.134 15.1824 179.359 15.1824C179.538 15.1824 179.718 15.2273 179.853 15.362C179.943 15.5417 179.988 15.7214 179.988 15.8561Z" fill="white"/>
  <path d="M180.077 25.3788H178.326L178.416 25.289C178.55 25.1542 178.64 25.0195 178.685 24.8847C178.73 24.75 178.775 24.5254 178.775 24.2559V19.3148C178.775 19.0453 178.775 18.8207 178.73 18.686C178.685 18.5512 178.64 18.4165 178.55 18.2368L178.505 18.147H179.853V24.2109C179.853 24.5254 179.853 24.705 179.898 24.8398C179.943 24.9745 179.988 25.1093 180.077 25.2441V25.3788ZM178.595 25.2441H179.898C179.808 25.1093 179.763 24.9745 179.763 24.8847C179.718 24.75 179.718 24.5254 179.718 24.2109V18.2817H178.685C178.775 18.4165 178.82 18.5512 178.82 18.6411C178.865 18.7758 178.865 19.0004 178.865 19.3148V24.2559C178.865 24.5254 178.82 24.75 178.775 24.9296C178.775 25.0195 178.685 25.1542 178.595 25.2441ZM179.314 16.6198C179.134 16.6198 178.955 16.5299 178.82 16.3952C178.685 16.2604 178.595 16.0807 178.595 15.9011C178.595 15.6765 178.64 15.4968 178.775 15.362C178.91 15.2273 179.089 15.1375 179.269 15.1375C179.494 15.1375 179.628 15.2273 179.808 15.362C179.943 15.4968 180.033 15.6765 180.033 15.8561C180.033 16.0358 179.943 16.2155 179.808 16.3502C179.718 16.5299 179.538 16.6198 179.314 16.6198ZM179.314 15.2722C179.134 15.2722 178.999 15.3171 178.865 15.4519C178.775 15.5866 178.685 15.7214 178.685 15.9011C178.685 16.0807 178.73 16.1706 178.865 16.3053C178.999 16.4401 179.134 16.485 179.269 16.485C179.449 16.485 179.628 16.4401 179.718 16.3053C179.853 16.1706 179.898 16.0358 179.898 15.8561C179.898 15.7214 179.853 15.5866 179.718 15.4519C179.628 15.362 179.494 15.2722 179.314 15.2722Z" fill="white"/>
  <path d="M187.759 25.3339H186.456C186.456 25.0644 186.456 24.6601 186.501 24.2109C186.546 23.7168 186.546 23.4024 186.546 23.2227V20.5276C186.546 19.9437 186.411 19.4945 186.142 19.1801C185.872 18.8657 185.513 18.686 185.019 18.686C184.345 18.686 183.851 18.8207 183.492 19.1352C183.087 19.4945 182.863 20.0335 182.863 20.7971V24.2558C182.863 24.5703 182.863 24.7499 182.908 24.8847C182.953 25.0195 182.997 25.1542 183.132 25.3339H181.65C181.83 25.0644 181.919 24.705 181.919 24.2558V19.3598C181.919 19.0004 181.919 18.7758 181.874 18.6411C181.874 18.5063 181.785 18.3716 181.695 18.1919H182.863V19.0453C183.357 18.3716 184.12 18.0571 185.064 18.0571C186.681 18.0571 187.444 18.7758 187.444 20.2581V24.2109C187.444 24.5254 187.444 24.7499 187.489 24.8847C187.579 25.0195 187.669 25.1542 187.759 25.3339Z" fill="white"/>
  <path d="M187.894 25.3788H186.411V25.3339C186.411 25.0644 186.411 24.6601 186.456 24.2109C186.501 23.7168 186.501 23.4024 186.501 23.2227V20.5276C186.501 19.9886 186.366 19.5394 186.142 19.225C185.917 18.9106 185.513 18.7758 185.064 18.7758C184.39 18.7758 183.896 18.9106 183.536 19.225C183.132 19.5394 182.908 20.0784 182.908 20.8421V24.3008C182.908 24.5703 182.908 24.7949 182.953 24.9296C182.997 25.0644 183.042 25.1991 183.177 25.3339L183.222 25.4237H181.56L181.605 25.3339C181.785 25.0644 181.874 24.705 181.874 24.3008V19.3598C181.874 19.0453 181.874 18.7758 181.83 18.686C181.83 18.5512 181.74 18.4165 181.65 18.2817L181.605 18.1919H182.953V18.9555C183.492 18.3716 184.21 18.0571 185.109 18.0571C186.726 18.0571 187.579 18.8207 187.579 20.303V24.2558C187.579 24.5703 187.579 24.7949 187.624 24.9296C187.669 25.0195 187.714 25.1542 187.849 25.3339L187.894 25.3788ZM186.501 25.244H187.624C187.534 25.1093 187.489 25.0195 187.444 24.8847C187.399 24.7499 187.399 24.5254 187.399 24.2109V20.2581C187.399 18.8207 186.636 18.102 185.064 18.102C184.12 18.102 183.402 18.4165 182.908 19.0902L182.818 19.225V18.2368H181.785C181.874 18.3716 181.919 18.5063 181.919 18.5961C181.919 18.7309 181.964 18.9555 181.964 19.3148V24.166C181.964 24.5703 181.874 24.9296 181.74 25.1991H182.997C182.908 25.0644 182.863 24.9296 182.818 24.8398C182.773 24.705 182.773 24.4804 182.773 24.2109V20.7522C182.773 19.9886 182.997 19.4047 183.402 19.0453C183.761 18.7309 184.3 18.5961 184.974 18.5961C185.468 18.5961 185.872 18.7758 186.142 19.0902C186.411 19.4047 186.546 19.8988 186.546 20.4827V23.1778C186.546 23.3575 186.546 23.6719 186.501 24.166C186.546 24.6152 186.501 24.9745 186.501 25.244Z" fill="white"/>
  <path d="M195.709 19.1352C195.305 19.0004 194.945 18.8657 194.586 18.8207C194.272 18.7309 194.002 18.7309 193.732 18.7309C193.957 18.8657 194.182 19.0903 194.316 19.3598C194.451 19.6293 194.541 19.9437 194.541 20.303C194.541 21.1565 194.227 21.8303 193.598 22.2794C193.149 22.6388 192.61 22.7735 192.026 22.7735C191.936 22.7735 191.891 22.7735 191.846 22.7735C191.532 22.8634 191.307 22.9532 191.172 23.0431C190.723 23.3126 190.498 23.627 190.498 23.9863C190.498 24.2109 190.588 24.3457 190.813 24.3906C191.037 24.4355 191.352 24.4804 191.756 24.4804C191.891 24.4804 192.071 24.4804 192.385 24.4804C192.699 24.4804 192.879 24.4804 193.014 24.4804C193.777 24.4804 194.361 24.5703 194.721 24.7499C195.215 24.9745 195.484 25.4237 195.484 26.0975C195.484 26.8162 195.08 27.49 194.227 28.2087C193.283 29.0172 192.16 29.4214 190.858 29.4214C190.184 29.4214 189.645 29.2418 189.286 28.9273C188.926 28.6129 188.702 28.2087 188.702 27.7595C188.702 27.3103 188.881 26.8611 189.241 26.4119C189.645 25.9178 190.229 25.5136 191.037 25.2441C190.992 25.2441 190.948 25.2441 190.903 25.2441C190.543 25.2441 190.229 25.1991 190.004 25.1093C189.6 24.9296 189.375 24.6601 189.375 24.2558C189.375 23.8516 189.645 23.4922 190.229 23.1329C190.409 22.9981 190.723 22.9083 191.082 22.7286C190.498 22.5939 190.004 22.3244 189.645 21.9201C189.286 21.5158 189.106 21.0667 189.106 20.5276C189.106 19.8089 189.331 19.225 189.78 18.8207C190.274 18.3716 191.037 18.1021 192.071 18.1021C192.385 18.1021 192.924 18.147 193.688 18.1919C194.092 18.2368 194.451 18.2368 194.721 18.2368C194.9 18.2368 195.08 18.2368 195.215 18.2368C195.394 18.2368 195.529 18.2368 195.664 18.1919V19.1352H195.709ZM194.586 26.5018C194.586 26.0077 194.316 25.6932 193.777 25.4686C193.418 25.3339 192.969 25.2441 192.385 25.2441C192.16 25.2441 191.981 25.2441 191.891 25.2441C191.846 25.2441 191.846 25.2441 191.801 25.289C191.037 25.6483 190.543 26.0077 190.229 26.4119C189.959 26.7264 189.87 27.0857 189.87 27.49C189.87 28.3883 190.409 28.8375 191.487 28.8375C192.295 28.8375 193.059 28.6129 193.643 28.1188C194.272 27.6696 194.586 27.1306 194.586 26.5018ZM193.508 20.348C193.508 19.764 193.328 19.3148 192.969 18.9555C192.654 18.6411 192.25 18.4614 191.801 18.4614C191.307 18.4614 190.948 18.6411 190.678 18.9555C190.409 19.3148 190.229 19.764 190.229 20.348C190.229 20.9768 190.364 21.4709 190.678 21.7853C190.992 22.0998 191.397 22.2794 191.936 22.2794C192.43 22.2794 192.834 22.0998 193.104 21.7404C193.373 21.4709 193.508 20.9768 193.508 20.348Z" fill="white"/>
  <path d="M190.903 29.5113C190.229 29.5113 189.69 29.3316 189.286 29.0172C188.881 28.7028 188.702 28.2536 188.702 27.8044C188.702 27.3103 188.881 26.8611 189.241 26.4119C189.6 25.9627 190.094 25.6034 190.768 25.3339C190.453 25.3339 190.184 25.289 189.959 25.1991C189.51 25.0195 189.286 24.705 189.286 24.2558C189.286 23.8516 189.6 23.4473 190.184 23.088C190.364 22.9981 190.588 22.8634 190.903 22.7286C190.364 22.5939 189.959 22.3244 189.6 21.965C189.241 21.5608 189.061 21.0667 189.061 20.5276C189.061 19.764 189.286 19.1801 189.78 18.7758C190.274 18.2817 191.082 18.0571 192.115 18.0571C192.43 18.0571 193.014 18.102 193.732 18.147C194.137 18.1919 194.496 18.1919 194.766 18.1919C194.945 18.1919 195.08 18.1919 195.26 18.1919C195.394 18.1919 195.574 18.1919 195.709 18.147H195.754V19.1801L195.664 19.1352C195.26 19.0004 194.9 18.8657 194.586 18.8207C194.361 18.7758 194.137 18.7309 193.957 18.7309C194.137 18.8657 194.272 19.0453 194.406 19.2699C194.541 19.5394 194.631 19.8988 194.631 20.2581C194.631 21.1565 194.316 21.8303 193.688 22.2794C193.193 22.6388 192.699 22.8185 192.115 22.8185H191.936C191.621 22.9083 191.397 22.9981 191.262 23.088C190.813 23.3126 190.588 23.627 190.588 23.9863C190.588 24.166 190.678 24.3008 190.858 24.3457C191.082 24.3906 191.352 24.4355 191.801 24.4355H193.059C193.822 24.4355 194.406 24.5254 194.766 24.705C195.305 24.9745 195.574 25.4237 195.574 26.0975C195.574 26.8162 195.17 27.5349 194.316 28.2536C193.328 29.0621 192.205 29.5113 190.903 29.5113ZM192.16 18.147C191.172 18.147 190.409 18.3716 189.914 18.8207C189.465 19.225 189.241 19.8089 189.241 20.5276C189.241 21.0667 189.42 21.5158 189.735 21.9201C190.094 22.3244 190.543 22.549 191.127 22.6837L191.307 22.7286L191.127 22.8185C190.723 22.9532 190.453 23.088 190.274 23.2227C189.735 23.5372 189.42 23.9414 189.42 24.3008C189.42 24.705 189.6 24.9745 190.004 25.1093C190.229 25.1991 190.543 25.244 190.903 25.244H191.037V25.3339C190.274 25.6034 189.69 26.0077 189.286 26.4568C188.926 26.8611 188.791 27.3103 188.791 27.7595C188.791 28.2086 188.971 28.6129 189.331 28.8824C189.69 29.1969 190.229 29.3316 190.858 29.3316C192.115 29.3316 193.238 28.9273 194.182 28.1188C194.99 27.445 195.394 26.7263 195.394 26.0526C195.394 25.4237 195.17 24.9745 194.676 24.7499C194.316 24.5703 193.777 24.4804 193.014 24.4804H191.756C191.307 24.4804 190.992 24.4355 190.813 24.3906C190.588 24.3008 190.453 24.166 190.453 23.9414C190.453 23.5372 190.678 23.2227 191.172 22.9532C191.307 22.8634 191.532 22.7735 191.846 22.6837H192.026C192.565 22.6837 193.104 22.504 193.553 22.1896C194.137 21.7404 194.451 21.1116 194.451 20.2581C194.451 19.8988 194.361 19.6293 194.227 19.3148C194.092 19.0453 193.867 18.8207 193.643 18.686L193.463 18.5961H193.688C193.957 18.5961 194.227 18.6411 194.541 18.686C194.855 18.7758 195.17 18.8657 195.574 19.0004V18.2368C195.439 18.2368 195.35 18.2817 195.215 18.2817C195.035 18.2817 194.9 18.2817 194.721 18.2817C194.451 18.2817 194.092 18.2817 193.688 18.2368C193.014 18.1919 192.475 18.147 192.16 18.147ZM191.442 28.8824C190.319 28.8824 189.78 28.4332 189.78 27.49C189.78 27.0857 189.914 26.7263 190.184 26.367C190.498 25.9627 191.037 25.6034 191.756 25.244C191.801 25.244 191.846 25.1991 191.891 25.1991C191.981 25.1991 192.16 25.1991 192.385 25.1991C192.969 25.1991 193.463 25.289 193.822 25.4237C194.361 25.6483 194.631 26.0077 194.631 26.5018C194.631 27.1306 194.316 27.6696 193.688 28.1637C193.014 28.6578 192.295 28.8824 191.442 28.8824ZM192.385 25.3339C192.16 25.3339 191.981 25.3339 191.891 25.3339C191.891 25.3339 191.846 25.3339 191.801 25.3339C191.082 25.6932 190.543 26.0526 190.274 26.4568C190.049 26.7713 189.914 27.1306 189.914 27.49C189.914 28.3434 190.409 28.7477 191.487 28.7477C192.295 28.7477 193.014 28.5231 193.643 28.029C194.272 27.5798 194.541 27.0408 194.541 26.4568C194.541 26.0077 194.316 25.6932 193.777 25.4686C193.418 25.3788 192.969 25.3339 192.385 25.3339ZM191.936 22.3693C191.397 22.3693 190.948 22.1896 190.633 21.8303C190.319 21.4709 190.139 20.9768 190.139 20.348C190.139 19.764 190.274 19.2699 190.588 18.9106C190.903 18.5512 191.307 18.3716 191.756 18.3716C192.205 18.3716 192.61 18.5512 192.924 18.8657C193.283 19.225 193.508 19.7191 193.508 20.303C193.508 20.9319 193.373 21.426 193.104 21.7853C192.879 22.1896 192.475 22.3693 191.936 22.3693ZM191.801 18.5512C191.352 18.5512 190.992 18.7309 190.678 19.0453C190.409 19.3598 190.274 19.8089 190.274 20.3929C190.274 21.0217 190.409 21.4709 190.723 21.7853C191.037 22.0998 191.442 22.2794 191.936 22.2794C192.43 22.2794 192.789 22.0998 193.059 21.7853C193.328 21.4709 193.463 20.9768 193.463 20.348C193.463 19.8089 193.283 19.3598 192.924 19.0004C192.61 18.686 192.25 18.5512 191.801 18.5512Z" fill="white"/>
  <path d="M155.373 36.2941L155.193 37.1925C154.969 37.4171 154.744 37.5968 154.564 37.7315C153.981 38.0909 153.352 38.2705 152.633 38.2705C151.6 38.2705 150.746 37.9112 150.028 37.1925C149.264 36.4289 148.86 35.3958 148.86 34.0931C148.86 32.7007 149.219 31.6226 149.983 30.7692C150.746 29.9157 151.69 29.5115 152.858 29.5115C153.127 29.5115 153.531 29.5564 154.07 29.6462C154.34 29.6911 154.52 29.7361 154.609 29.7361C154.834 29.7361 154.969 29.7361 155.014 29.7361C155.104 29.7361 155.148 29.7361 155.193 29.6911V31.1734C154.969 30.859 154.654 30.5446 154.205 30.32C153.756 30.0954 153.307 29.9607 152.858 29.9607C152.049 29.9607 151.42 30.2751 150.881 30.9039C150.297 31.5777 149.983 32.521 149.983 33.7338C149.983 35.0364 150.252 36.0695 150.746 36.7433C151.241 37.4171 151.914 37.7315 152.723 37.7315C153.352 37.7315 153.981 37.5069 154.564 37.0128C154.834 36.8781 155.059 36.6086 155.373 36.2941Z" fill="white"/>
  <path d="M152.633 38.2705C151.599 38.2705 150.701 37.9112 149.982 37.1925C149.174 36.384 148.77 35.3508 148.77 34.0482C148.77 32.6557 149.174 31.5328 149.937 30.6793C150.701 29.8259 151.689 29.3767 152.857 29.3767C153.127 29.3767 153.531 29.4216 154.07 29.5115C154.339 29.5564 154.519 29.6013 154.609 29.6013C154.789 29.6013 154.968 29.6013 155.013 29.6013C155.058 29.6013 155.148 29.6013 155.148 29.5564L155.238 29.5115V31.3082L155.148 31.1285C154.923 30.8141 154.609 30.5446 154.205 30.32C153.755 30.0954 153.351 29.9606 152.902 29.9606C152.138 29.9606 151.465 30.2751 150.971 30.859C150.387 31.5328 150.117 32.4761 150.117 33.6439C150.117 34.9466 150.387 35.9348 150.881 36.6085C151.375 37.2374 152.004 37.5967 152.812 37.5967C153.441 37.5967 154.025 37.3722 154.609 36.8781C154.789 36.7433 155.058 36.4738 155.328 36.1594L155.417 36.2043L155.238 37.1026C155.013 37.3272 154.789 37.5069 154.609 37.6417C154.025 38.0908 153.351 38.2705 152.633 38.2705ZM152.902 29.5115C151.779 29.5115 150.791 29.9157 150.072 30.7692C149.309 31.6226 148.949 32.7007 148.949 34.0482C148.949 35.3059 149.353 36.339 150.117 37.1026C150.836 37.8213 151.689 38.1807 152.677 38.1807C153.396 38.1807 154.025 38.001 154.564 37.6417C154.744 37.5518 154.923 37.3722 155.148 37.1476L155.283 36.4738C155.058 36.6984 154.878 36.923 154.699 37.0577C154.07 37.5518 153.441 37.7764 152.812 37.7764C151.959 37.7764 151.285 37.4171 150.791 36.7433C150.252 36.0246 150.027 34.9915 150.027 33.6889C150.027 32.4761 150.342 31.4879 150.926 30.8141C151.465 30.1852 152.138 29.8708 152.947 29.8708C153.396 29.8708 153.89 30.0056 154.339 30.2302C154.699 30.4098 155.013 30.6793 155.238 30.9488V29.6911C155.193 29.6911 155.193 29.6911 155.148 29.6911C155.058 29.6911 154.923 29.6911 154.744 29.6911C154.609 29.6911 154.429 29.6462 154.205 29.6013C153.531 29.5564 153.127 29.5115 152.902 29.5115Z" fill="white"/>
  <path d="M163.817 34.5422C163.817 35.6651 163.458 36.5635 162.694 37.2822C161.976 37.956 161.122 38.2704 160.089 38.2704C159.056 38.2704 158.158 37.911 157.439 37.2373C156.72 36.5635 156.361 35.6651 156.361 34.5871C156.361 33.554 156.72 32.6556 157.439 31.892C158.158 31.1733 159.056 30.769 160.179 30.769C161.122 30.769 161.976 31.1284 162.694 31.8471C163.458 32.6107 163.817 33.5091 163.817 34.5422ZM162.739 34.7218C162.739 33.8235 162.515 33.0599 162.021 32.3861C161.526 31.6225 160.853 31.2631 160.089 31.2631C159.236 31.2631 158.607 31.5776 158.113 32.1615C157.619 32.7454 157.394 33.554 157.394 34.4973C157.394 35.4855 157.663 36.294 158.247 36.9228C158.786 37.5068 159.415 37.8212 160.089 37.8212C160.808 37.8212 161.392 37.5517 161.886 37.0127C162.47 36.4737 162.739 35.7101 162.739 34.7218Z" fill="white"/>
  <path d="M160.089 38.3153C159.056 38.3153 158.113 37.956 157.394 37.2373C156.675 36.5186 156.316 35.6202 156.316 34.5871C156.316 33.5091 156.675 32.6107 157.394 31.8471C158.113 31.0835 159.056 30.7241 160.179 30.7241C161.167 30.7241 162.021 31.0835 162.739 31.8022C163.503 32.5658 163.862 33.4641 163.862 34.5422C163.862 35.6651 163.458 36.6084 162.739 37.3271C162.021 37.956 161.122 38.3153 160.089 38.3153ZM160.179 30.8589C159.101 30.8589 158.158 31.2182 157.484 31.9369C156.81 32.6556 156.451 33.554 156.451 34.5871C156.451 35.6202 156.81 36.4737 157.529 37.1923C158.247 37.8661 159.101 38.2255 160.134 38.2255C161.122 38.2255 161.976 37.911 162.694 37.2373C163.413 36.5635 163.817 35.6651 163.817 34.5422C163.817 33.5091 163.458 32.6107 162.694 31.892C161.931 31.2182 161.122 30.8589 160.179 30.8589ZM160.134 37.911C159.415 37.911 158.786 37.5966 158.247 36.9678C157.663 36.294 157.349 35.4855 157.349 34.4973C157.349 33.5091 157.574 32.7005 158.068 32.1166C158.562 31.5326 159.236 31.2182 160.089 31.2182C160.898 31.2182 161.571 31.6225 162.065 32.3861C162.515 33.0599 162.784 33.8684 162.784 34.7668C162.784 35.71 162.515 36.5186 161.976 37.1025C161.482 37.6415 160.853 37.911 160.134 37.911ZM160.089 31.3081C159.281 31.3081 158.652 31.6225 158.158 32.1615C157.708 32.7454 157.439 33.5091 157.439 34.4523C157.439 35.3956 157.708 36.2041 158.292 36.833C158.831 37.4169 159.415 37.7314 160.089 37.7314C160.808 37.7314 161.392 37.4619 161.841 36.9228C162.335 36.3389 162.604 35.5753 162.604 34.6769C162.604 33.8235 162.38 33.015 161.931 32.3412C161.482 31.7123 160.853 31.3081 160.089 31.3081Z" fill="white"/>
  <path d="M167.995 32.431C167.905 32.2963 167.815 32.2064 167.77 32.1166C167.591 31.892 167.366 31.8022 167.141 31.8022C166.737 31.8022 166.468 31.9369 166.243 32.2514C166.018 32.5658 165.929 32.9251 165.929 33.3743V36.9678C165.929 37.2822 165.929 37.5068 165.974 37.6415C166.018 37.7763 166.063 37.9111 166.153 38.0458H164.716C164.851 37.9111 164.895 37.7314 164.94 37.5966C164.985 37.4619 164.985 37.2373 164.985 36.9678V32.0717C164.985 31.6225 164.895 31.2632 164.761 30.9487H165.929V31.9818C166.198 31.5776 166.513 31.3081 166.962 31.1284C167.321 30.9936 167.636 30.9038 167.995 30.9038V32.431Z" fill="white"/>
  <path d="M166.243 38.1356H164.581L164.626 38.0458C164.716 37.911 164.806 37.7314 164.851 37.5966C164.895 37.4619 164.895 37.2373 164.895 37.0127V32.0717C164.895 31.6225 164.806 31.2631 164.671 30.9936L164.626 30.9038H165.974V31.8471C166.243 31.5327 166.557 31.2632 166.917 31.0835C167.276 30.9038 167.635 30.8589 167.995 30.8589H168.04V32.6107L167.95 32.431C167.86 32.2963 167.77 32.2064 167.725 32.1166C167.546 31.9369 167.366 31.8471 167.141 31.8471C166.782 31.8471 166.468 31.9818 166.288 32.2963C166.108 32.5658 165.974 32.97 165.974 33.4192V37.0127C165.974 37.3271 165.974 37.5517 166.018 37.6865C166.063 37.8212 166.108 37.911 166.198 38.0907L166.243 38.1356ZM164.806 38.0009H166.063C165.974 37.8661 165.929 37.7763 165.929 37.6415C165.884 37.5068 165.884 37.2822 165.884 36.9678V33.3743C165.884 32.9251 165.974 32.5209 166.198 32.2064C166.423 31.892 166.737 31.7123 167.141 31.7123C167.366 31.7123 167.591 31.8022 167.815 32.0268C167.86 32.0717 167.905 32.1166 167.95 32.2064V30.9487C167.635 30.9487 167.276 31.0386 166.962 31.1733C166.557 31.353 166.243 31.6225 165.974 32.0268L165.884 32.1615V30.9936H164.851C164.985 31.2631 165.075 31.6225 165.075 32.0717V36.9678C165.075 37.2373 165.03 37.4169 164.985 37.5966C164.94 37.7314 164.895 37.8661 164.806 38.0009Z" fill="white"/>
  <path d="M175.81 34.1379C175.81 35.3058 175.451 36.2491 174.732 36.9678C173.968 37.7314 172.845 38.1356 171.498 38.1356C171.363 38.1356 171.228 38.1356 171.094 38.1356C170.959 38.1356 170.824 38.0907 170.689 38.0907V41.0104C170.689 41.2799 170.689 41.5045 170.734 41.6393C170.779 41.774 170.824 41.9088 170.959 42.0435H169.521C169.611 41.9088 169.656 41.7291 169.701 41.5943C169.746 41.4596 169.746 41.235 169.746 41.0104V32.0717C169.746 31.7572 169.746 31.5327 169.701 31.3979C169.656 31.2631 169.611 31.1284 169.477 30.9487H170.734V31.892C170.959 31.5327 171.228 31.2631 171.588 31.0835C171.947 30.9038 172.351 30.769 172.845 30.769C173.744 30.769 174.462 31.0835 175.046 31.6674C175.541 32.3412 175.81 33.1497 175.81 34.1379ZM174.687 34.2727C174.687 33.3294 174.507 32.6107 174.148 32.1166C173.789 31.6225 173.295 31.3979 172.666 31.3979C172.037 31.3979 171.543 31.5776 171.183 31.9818C170.824 32.3861 170.644 32.97 170.644 33.7336V35.7999C170.644 36.4737 170.734 36.9678 170.914 37.1924C171.094 37.4619 171.408 37.5966 171.857 37.5966C172.576 37.5966 173.205 37.372 173.699 36.9678C174.373 36.3838 174.687 35.4855 174.687 34.2727Z" fill="white"/>
  <path d="M171.004 42.0884H169.432L169.477 41.9986C169.566 41.8638 169.611 41.6842 169.611 41.5494C169.656 41.4147 169.656 41.235 169.656 40.9655V32.0717C169.656 31.7572 169.656 31.5326 169.611 31.3979C169.566 31.2631 169.521 31.1284 169.387 30.9936L169.342 30.9038H170.734V31.7123C170.959 31.4428 171.183 31.2182 171.543 31.0386C171.902 30.8589 172.351 30.7241 172.8 30.7241C173.699 30.7241 174.462 31.0385 175.046 31.6674C175.585 32.2963 175.9 33.1048 175.9 34.093C175.9 35.2609 175.541 36.2491 174.777 36.9678C173.968 37.7314 172.89 38.1356 171.498 38.1356C171.363 38.1356 171.228 38.1356 171.094 38.1356C170.959 38.1356 170.869 38.1356 170.734 38.0907V40.9206C170.734 41.1901 170.734 41.4147 170.779 41.5494C170.824 41.6842 170.869 41.8189 170.959 41.9537L171.004 42.0884ZM169.611 41.9986H170.779C170.689 41.8638 170.644 41.774 170.644 41.6393C170.6 41.5045 170.6 41.2799 170.6 41.0104V38.0458H170.644C170.779 38.0907 170.914 38.0907 171.049 38.0907C171.183 38.0907 171.318 38.0907 171.453 38.0907C172.8 38.0907 173.879 37.6864 174.642 36.9228C175.361 36.2041 175.72 35.2609 175.72 34.093C175.72 33.1048 175.451 32.3412 174.912 31.7572C174.373 31.1733 173.654 30.8589 172.756 30.8589C172.306 30.8589 171.902 30.9487 171.543 31.1284C171.183 31.3081 170.914 31.5776 170.689 31.9369L170.6 32.1166V31.0386H169.521C169.611 31.1733 169.656 31.3081 169.701 31.3979C169.746 31.5326 169.746 31.7572 169.746 32.0717V40.9655C169.746 41.235 169.746 41.4147 169.701 41.5943C169.701 41.7291 169.656 41.8638 169.611 41.9986ZM171.902 37.6415C171.453 37.6415 171.094 37.5068 170.914 37.2373C170.734 36.9678 170.644 36.4737 170.644 35.7999V33.7336C170.644 32.97 170.824 32.3861 171.183 31.9818C171.543 31.5776 172.082 31.353 172.711 31.353C173.34 31.353 173.879 31.6225 174.238 32.1166C174.597 32.6107 174.777 33.3294 174.777 34.2727C174.777 35.4855 174.418 36.3838 173.744 36.9678C173.25 37.4169 172.621 37.6415 171.902 37.6415ZM172.711 31.4877C172.127 31.4877 171.633 31.6674 171.273 32.0717C170.914 32.4759 170.734 33.015 170.734 33.7786V35.8448C170.734 36.5186 170.824 36.9678 171.004 37.2373C171.183 37.4619 171.498 37.5966 171.902 37.5966C172.621 37.5966 173.205 37.372 173.699 36.9678C174.373 36.3838 174.687 35.5304 174.687 34.3625C174.687 33.4192 174.507 32.7454 174.148 32.2513C173.789 31.7123 173.295 31.4877 172.711 31.4877Z" fill="white"/>
  <path d="M184.345 34.5422C184.345 35.6651 183.985 36.5635 183.222 37.2822C182.503 37.956 181.65 38.2704 180.616 38.2704C179.583 38.2704 178.685 37.911 177.966 37.2373C177.248 36.5186 176.888 35.6651 176.888 34.5871C176.888 33.554 177.248 32.6556 177.966 31.892C178.685 31.1733 179.583 30.769 180.706 30.769C181.65 30.769 182.503 31.1284 183.222 31.8471C183.94 32.6107 184.345 33.5091 184.345 34.5422ZM183.267 34.7218C183.267 33.8235 183.042 33.0599 182.548 32.3861C182.054 31.6225 181.38 31.2631 180.616 31.2631C179.763 31.2631 179.134 31.5776 178.64 32.1615C178.146 32.7454 177.921 33.554 177.921 34.4973C177.921 35.4855 178.191 36.294 178.775 36.9228C179.314 37.5068 179.943 37.8212 180.616 37.8212C181.335 37.8212 181.919 37.5517 182.413 37.0127C182.997 36.4737 183.267 35.7101 183.267 34.7218Z" fill="white"/>
  <path d="M180.616 38.3153C179.583 38.3153 178.64 37.956 177.921 37.2373C177.203 36.5186 176.843 35.6202 176.843 34.5871C176.843 33.5091 177.203 32.6107 177.921 31.8471C178.64 31.0835 179.583 30.7241 180.706 30.7241C181.694 30.7241 182.548 31.0835 183.267 31.8022C184.03 32.5658 184.39 33.4641 184.39 34.5422C184.39 35.6651 183.985 36.6084 183.267 37.3271C182.503 37.956 181.65 38.3153 180.616 38.3153ZM180.661 30.8589C179.583 30.8589 178.64 31.2182 177.966 31.9369C177.292 32.6556 176.933 33.554 176.933 34.5871C176.933 35.6202 177.292 36.4737 178.011 37.1923C178.73 37.8661 179.583 38.2255 180.616 38.2255C181.605 38.2255 182.458 37.911 183.177 37.2373C183.895 36.5635 184.3 35.6651 184.3 34.5422C184.3 33.5091 183.94 32.6107 183.177 31.892C182.458 31.2182 181.605 30.8589 180.661 30.8589ZM180.661 37.911C179.943 37.911 179.314 37.5966 178.775 36.9678C178.191 36.294 177.876 35.4855 177.876 34.4973C177.876 33.5091 178.101 32.7005 178.595 32.1166C179.089 31.5326 179.763 31.2182 180.616 31.2182C181.425 31.2182 182.099 31.6225 182.593 32.3861C183.042 33.0599 183.311 33.8684 183.311 34.7668C183.311 35.71 183.042 36.5186 182.503 37.1025C182.009 37.6415 181.38 37.911 180.661 37.911ZM180.616 31.3081C179.808 31.3081 179.179 31.6225 178.685 32.1615C178.236 32.7454 177.966 33.5091 177.966 34.4523C177.966 35.3956 178.236 36.2041 178.82 36.833C179.359 37.4169 179.943 37.7314 180.616 37.7314C181.335 37.7314 181.919 37.4619 182.368 36.9228C182.862 36.3389 183.132 35.5753 183.132 34.6769C183.132 33.8235 182.907 33.015 182.458 32.3412C182.009 31.7123 181.38 31.3081 180.616 31.3081Z" fill="white"/>
  <path d="M188.656 32.431C188.567 32.2963 188.477 32.2064 188.432 32.1166C188.252 31.892 188.028 31.8022 187.803 31.8022C187.399 31.8022 187.129 31.9369 186.905 32.2514C186.68 32.5658 186.59 32.9251 186.59 33.3743V36.9678C186.59 37.2822 186.59 37.5068 186.635 37.6415C186.68 37.7763 186.725 37.9111 186.815 38.0458H185.377C185.512 37.9111 185.557 37.7314 185.602 37.5966C185.647 37.4619 185.692 37.2373 185.692 36.9678V32.0717C185.692 31.6225 185.602 31.2632 185.467 30.9487H186.635V31.9818C186.905 31.5776 187.219 31.3081 187.668 31.1284C188.028 30.9936 188.342 30.9038 188.701 30.9038V32.431H188.656Z" fill="white"/>
  <path d="M186.905 38.1356H185.243L185.288 38.0458C185.378 37.911 185.468 37.7314 185.513 37.5966C185.558 37.4619 185.558 37.2373 185.558 37.0127V32.0717C185.558 31.6225 185.468 31.2631 185.333 30.9936L185.288 30.9038H186.636V31.8471C186.905 31.5327 187.22 31.2632 187.579 31.0835C187.938 30.9038 188.298 30.8589 188.657 30.8589H188.702V32.6107L188.612 32.431C188.522 32.2963 188.477 32.2064 188.387 32.1166C188.208 31.9369 187.983 31.8471 187.804 31.8471C187.444 31.8471 187.13 31.9818 186.95 32.2963C186.77 32.5658 186.636 32.97 186.636 33.4192V37.0127C186.636 37.3271 186.636 37.5517 186.681 37.6865C186.681 37.8212 186.77 37.911 186.86 38.0907L186.905 38.1356ZM185.468 38.0009H186.725C186.636 37.8661 186.591 37.7763 186.591 37.6415C186.546 37.5068 186.546 37.2822 186.546 36.9678V33.3743C186.546 32.9251 186.636 32.5209 186.86 32.2064C187.085 31.892 187.399 31.7123 187.804 31.7123C188.028 31.7123 188.298 31.8022 188.477 32.0268C188.522 32.0717 188.567 32.1166 188.612 32.2064V30.9487C188.298 30.9487 187.938 31.0386 187.624 31.1733C187.22 31.353 186.905 31.6225 186.636 32.0268L186.546 32.1615V30.9936H185.513C185.647 31.2631 185.737 31.6225 185.737 32.0717V36.9678C185.737 37.2373 185.692 37.4169 185.647 37.5966C185.603 37.7314 185.558 37.8661 185.468 38.0009Z" fill="white"/>
  <path d="M194.316 38.0458H193.149L193.059 37.2373C192.834 37.4619 192.654 37.6415 192.475 37.7314C191.981 38.0458 191.487 38.2255 190.993 38.2255C190.409 38.2255 189.914 38.0458 189.555 37.7314C189.196 37.4169 189.016 37.0127 189.016 36.5186C189.016 36.1143 189.151 35.755 189.465 35.4405C189.69 35.216 190.139 34.9464 190.768 34.5871L193.014 33.4641V32.5209C193.014 31.6674 192.699 31.2631 192.026 31.2631C191.397 31.2631 190.813 31.4877 190.364 31.9818C190.364 31.9818 190.139 32.2963 189.645 32.97V31.5327C190.004 31.3081 190.409 31.1284 190.813 30.9936C191.262 30.8589 191.621 30.814 192.026 30.814C192.699 30.814 193.194 30.9487 193.508 31.2182C193.822 31.4877 193.957 31.9369 193.957 32.5658V36.9678C193.957 37.2373 193.957 37.4619 194.002 37.5966C194.092 37.7763 194.182 37.911 194.316 38.0458ZM193.059 35.8448V34.1828L191.891 34.7218C191.127 35.1261 190.633 35.4855 190.364 35.71C190.184 35.9346 190.049 36.1592 190.049 36.4287C190.049 36.6983 190.184 36.9678 190.409 37.1924C190.633 37.4169 190.993 37.5068 191.397 37.5068C191.891 37.5068 192.295 37.372 192.565 37.0576C192.924 36.833 193.059 36.3838 193.059 35.8448Z" fill="white"/>
  <path d="M190.993 38.3153C190.364 38.3153 189.87 38.1356 189.555 37.8212C189.196 37.5068 189.016 37.0576 189.016 36.5635C189.016 36.1143 189.151 35.755 189.465 35.4855C189.69 35.2609 190.139 34.9914 190.813 34.632L193.059 33.5091V32.6107C193.059 31.8022 192.744 31.3979 192.115 31.3979C191.487 31.3979 190.948 31.6225 190.498 32.0717C190.498 32.0717 190.139 32.5658 189.78 33.015L189.69 33.1497V31.5327H189.735C190.094 31.3081 190.498 31.1284 190.948 30.9936C191.397 30.8589 191.801 30.814 192.16 30.814C192.879 30.814 193.373 30.9487 193.688 31.2182C194.002 31.4877 194.137 31.9369 194.137 32.6107V37.0127C194.137 37.2822 194.137 37.5068 194.182 37.6415C194.227 37.7763 194.316 37.911 194.406 38.0458L194.496 38.1356H193.149L193.059 37.4169C192.879 37.5966 192.699 37.7314 192.565 37.8212C191.981 38.1356 191.487 38.3153 190.993 38.3153ZM192.071 31.2631C192.789 31.2631 193.104 31.7123 193.104 32.6107V33.5989H193.059L190.813 34.7218C190.184 35.0363 189.735 35.3507 189.51 35.5304C189.241 35.7999 189.106 36.1592 189.106 36.5635C189.106 37.0576 189.286 37.4169 189.6 37.7314C189.914 38.0458 190.409 38.1806 190.993 38.1806C191.487 38.1806 191.981 38.0009 192.475 37.6865C192.654 37.5966 192.834 37.4169 193.059 37.1924L193.149 37.1025L193.238 37.956H194.227C194.137 37.8212 194.092 37.7314 194.047 37.5966C194.002 37.4619 194.002 37.2373 194.002 36.9228V32.5209C194.002 31.892 193.867 31.4877 193.553 31.2182C193.283 30.9487 192.789 30.814 192.115 30.814C191.756 30.814 191.352 30.8589 190.948 30.9936C190.543 31.1284 190.139 31.2631 189.825 31.4877V32.7005C190.409 31.9369 190.454 31.892 190.454 31.8471C190.813 31.5327 191.397 31.2631 192.071 31.2631ZM191.442 37.5966C191.037 37.5966 190.678 37.4619 190.454 37.2373C190.184 37.0127 190.049 36.7432 190.049 36.4287C190.049 36.1592 190.139 35.8897 190.364 35.6651C190.588 35.3956 191.127 35.0812 191.891 34.632L193.149 34.0481V35.8448C193.149 36.4287 193.014 36.8779 192.699 37.1924C192.34 37.4619 191.936 37.5966 191.442 37.5966ZM193.014 34.2727L191.936 34.7668C191.172 35.171 190.678 35.5304 190.454 35.755C190.274 35.9346 190.184 36.1592 190.184 36.4287C190.184 36.6983 190.319 36.9228 190.543 37.1474C190.768 37.372 191.082 37.4619 191.487 37.4619C191.981 37.4619 192.34 37.3271 192.654 37.0576C192.924 36.7881 193.059 36.3838 193.059 35.7999V34.2727H193.014Z" fill="white"/>
  <path d="M198.404 37.8213C198.314 37.9112 198.224 37.9561 198.135 38.001C197.865 38.1357 197.596 38.2256 197.236 38.2256C196.473 38.2256 196.068 37.5518 196.068 36.2492V31.5328H195.574L195.709 30.9937H196.113V29.5564L197.057 29.1072V30.9488H198.404L198.269 31.4878H197.057V36.4738C197.057 36.923 197.101 37.1925 197.236 37.3721C197.326 37.5069 197.461 37.5518 197.64 37.5518C197.865 37.5518 198.09 37.462 198.269 37.2823C198.314 37.2374 198.404 37.1475 198.449 37.0128V37.8213H198.404Z" fill="white"/>
  <path d="M197.281 38.2705C196.473 38.2705 196.068 37.5967 196.068 36.2043V31.5777H195.484L195.664 30.9039H196.068V29.5114L197.101 29.0173V30.9039H198.449L198.314 31.5777H197.101V36.5187C197.101 36.9229 197.146 37.2374 197.281 37.3721C197.371 37.462 197.461 37.5518 197.64 37.5518C197.865 37.5518 198.045 37.462 198.224 37.2823C198.269 37.2374 198.359 37.1475 198.404 37.0128L198.494 36.8331V37.8662C198.404 37.9561 198.314 38.0459 198.224 38.0908C197.91 38.2256 197.596 38.2705 197.281 38.2705ZM195.619 31.4878H196.158V36.2492C196.158 37.5518 196.517 38.1807 197.281 38.1807C197.596 38.1807 197.865 38.0908 198.135 38.001C198.224 37.9561 198.269 37.9111 198.359 37.8213V37.2374C198.314 37.2823 198.269 37.3272 198.269 37.3721C198.09 37.5518 197.865 37.6866 197.596 37.6866C197.416 37.6866 197.236 37.5967 197.146 37.462C197.012 37.2823 196.967 36.9679 196.967 36.5187V31.4878H198.179L198.269 31.0387H196.922V29.197L196.113 29.6013V31.0387H195.664L195.619 31.4878Z" fill="white"/>
  <path d="M201.234 38.0461H199.707C199.842 37.9113 199.932 37.7765 199.977 37.5969C200.021 37.4621 200.066 37.2375 200.066 36.968V32.027C200.066 31.7575 200.066 31.5329 200.021 31.3982C199.977 31.2634 199.932 31.0837 199.842 30.949H201.01V36.968C201.01 37.2824 201.01 37.507 201.055 37.5969C201.099 37.7765 201.144 37.9113 201.234 38.0461ZM201.234 28.6132C201.234 28.7929 201.189 28.9277 201.055 29.0624C200.92 29.1972 200.74 29.2421 200.56 29.2421C200.381 29.2421 200.246 29.1972 200.111 29.0624C199.977 28.9277 199.932 28.7929 199.932 28.6132C199.932 28.4336 199.977 28.2539 200.111 28.1191C200.246 27.9844 200.381 27.9395 200.605 27.9395C200.785 27.9395 200.965 27.9844 201.099 28.1191C201.189 28.2988 201.234 28.4336 201.234 28.6132Z" fill="white"/>
  <path d="M201.324 38.1356H199.572L199.662 38.0458C199.797 37.9111 199.887 37.7763 199.932 37.6415C199.977 37.5068 200.021 37.2822 200.021 37.0127V32.0717C200.021 31.8022 200.021 31.5776 199.977 31.4428C199.932 31.3081 199.887 31.1733 199.797 30.9936L199.752 30.9038H201.099V36.9678C201.099 37.2822 201.099 37.4619 201.144 37.5966C201.189 37.7314 201.234 37.8661 201.324 38.0009V38.1356ZM199.842 38.0009H201.144C201.055 37.8661 201.01 37.7314 201.01 37.6415C200.965 37.5068 200.965 37.2822 200.965 36.9678V31.0386H199.932C200.021 31.1733 200.066 31.3081 200.066 31.3979C200.111 31.5327 200.111 31.7573 200.111 32.0717V37.0127C200.111 37.2822 200.066 37.5068 200.021 37.6865C200.021 37.7763 199.932 37.9111 199.842 38.0009ZM200.56 29.3766C200.381 29.3766 200.201 29.2868 200.066 29.152C199.932 29.0172 199.842 28.8376 199.842 28.6579C199.842 28.4333 199.887 28.2536 200.021 28.1189C200.156 27.9841 200.336 27.8943 200.516 27.8943C200.74 27.8943 200.875 27.9841 201.055 28.1189C201.189 28.2536 201.279 28.4333 201.279 28.613C201.279 28.7927 201.189 28.9723 201.055 29.1071C200.965 29.2868 200.785 29.3766 200.56 29.3766ZM200.56 28.029C200.381 28.029 200.246 28.074 200.111 28.2087C200.021 28.3435 199.932 28.4782 199.932 28.6579C199.932 28.8376 199.977 28.9274 200.111 29.0622C200.246 29.1969 200.381 29.2418 200.516 29.2418C200.695 29.2418 200.875 29.1969 200.965 29.0622C201.099 28.9274 201.144 28.7927 201.144 28.613C201.144 28.4782 201.099 28.3435 200.965 28.2087C200.875 28.1189 200.74 28.029 200.56 28.029Z" fill="white"/>
  <path d="M209.903 34.5422C209.903 35.6651 209.544 36.5635 208.78 37.2822C208.062 37.956 207.208 38.2704 206.175 38.2704C205.142 38.2704 204.244 37.911 203.525 37.2373C202.806 36.5186 202.447 35.6651 202.447 34.5871C202.447 33.554 202.806 32.6556 203.525 31.892C204.244 31.1733 205.142 30.769 206.265 30.769C207.208 30.769 208.062 31.1284 208.78 31.8471C209.544 32.6107 209.903 33.5091 209.903 34.5422ZM208.825 34.7218C208.825 33.8235 208.601 33.0599 208.106 32.3861C207.612 31.6225 206.939 31.2631 206.175 31.2631C205.322 31.2631 204.693 31.5776 204.199 32.1615C203.704 32.7454 203.48 33.554 203.48 34.4973C203.48 35.4855 203.749 36.294 204.333 36.9228C204.872 37.5068 205.501 37.8212 206.175 37.8212C206.894 37.8212 207.478 37.5517 207.972 37.0127C208.556 36.4737 208.825 35.7101 208.825 34.7218Z" fill="white"/>
  <path d="M206.175 38.3153C205.142 38.3153 204.199 37.956 203.48 37.2373C202.761 36.5186 202.402 35.6202 202.402 34.5871C202.402 33.5091 202.761 32.6107 203.48 31.8471C204.199 31.0835 205.142 30.7241 206.265 30.7241C207.253 30.7241 208.106 31.0835 208.825 31.8022C209.589 32.5658 209.948 33.4641 209.948 34.5422C209.948 35.6651 209.544 36.6084 208.825 37.3271C208.106 37.956 207.208 38.3153 206.175 38.3153ZM206.265 30.8589C205.187 30.8589 204.243 31.2182 203.57 31.9369C202.896 32.6556 202.537 33.554 202.537 34.5871C202.537 35.6202 202.896 36.4737 203.615 37.1923C204.333 37.8661 205.187 38.2255 206.22 38.2255C207.208 38.2255 208.062 37.911 208.78 37.2373C209.499 36.5635 209.903 35.6651 209.903 34.5422C209.903 33.5091 209.544 32.6107 208.78 31.892C208.062 31.2182 207.208 30.8589 206.265 30.8589ZM206.22 37.911C205.501 37.911 204.872 37.5966 204.333 36.9678C203.749 36.294 203.435 35.4855 203.435 34.4973C203.435 33.5091 203.66 32.7005 204.154 32.1166C204.648 31.5326 205.322 31.2182 206.175 31.2182C206.984 31.2182 207.657 31.6225 208.151 32.3861C208.601 33.0599 208.87 33.8684 208.87 34.7668C208.87 35.71 208.601 36.5186 208.062 37.1025C207.612 37.6415 206.984 37.911 206.22 37.911ZM206.175 31.3081C205.366 31.3081 204.738 31.6225 204.243 32.1615C203.794 32.7454 203.525 33.5091 203.525 34.4523C203.525 35.3956 203.794 36.2041 204.378 36.833C204.917 37.4169 205.501 37.7314 206.175 37.7314C206.894 37.7314 207.478 37.4619 207.927 36.9228C208.421 36.3389 208.69 35.5753 208.69 34.6769C208.69 33.8235 208.466 33.015 208.017 32.3412C207.612 31.7123 206.939 31.3081 206.175 31.3081Z" fill="white"/>
  <path d="M216.866 38.0458H215.563C215.563 37.7763 215.563 37.372 215.608 36.9228C215.653 36.4287 215.653 36.1143 215.653 35.9346V33.2395C215.653 32.6556 215.518 32.2064 215.249 31.892C214.979 31.5776 214.62 31.3979 214.126 31.3979C213.452 31.3979 212.958 31.5327 212.598 31.8471C212.194 32.2064 211.97 32.7454 211.97 33.5091V36.9678C211.97 37.2822 211.97 37.4619 212.015 37.5966C212.059 37.7314 212.104 37.8661 212.239 38.0458H210.757C210.937 37.7763 211.026 37.4169 211.026 36.9678V32.1166C211.026 31.7572 211.026 31.5327 210.981 31.3979C210.981 31.2631 210.892 31.1284 210.802 30.9487H211.97V31.8022C212.464 31.1284 213.227 30.814 214.171 30.814C215.788 30.814 216.551 31.5327 216.551 33.015V36.9678C216.551 37.2822 216.551 37.5068 216.596 37.6415C216.686 37.7763 216.776 37.911 216.866 38.0458Z" fill="white"/>
  <path d="M217 38.1356H215.518V38.0907C215.518 37.8212 215.518 37.4619 215.563 36.9678C215.608 36.5186 215.608 36.1592 215.608 35.9796V33.2845C215.608 32.7454 215.473 32.2963 215.249 31.9818C215.024 31.6674 214.62 31.5327 214.171 31.5327C213.497 31.5327 213.003 31.6674 212.643 31.9818C212.239 32.2963 212.059 32.8353 212.059 33.5989V37.0576C212.059 37.3271 212.059 37.5517 212.104 37.6865C212.149 37.8212 212.194 37.956 212.329 38.0907L212.374 38.1806H210.667L210.712 38.0907C210.892 37.8212 210.981 37.4619 210.981 37.0576V32.1166C210.981 31.7572 210.981 31.5327 210.937 31.4428C210.937 31.3081 210.847 31.1733 210.757 31.0386L210.712 30.9487H212.059V31.7123C212.598 31.1284 213.317 30.814 214.216 30.814C215.833 30.814 216.686 31.5776 216.686 33.0599V37.0127C216.686 37.3271 216.686 37.5517 216.731 37.6865C216.776 37.7763 216.821 37.911 216.956 38.0907L217 38.1356ZM215.608 38.0009H216.776C216.686 37.8661 216.641 37.7763 216.596 37.6415C216.551 37.5068 216.551 37.2822 216.551 36.9678V33.015C216.551 31.5776 215.788 30.8589 214.216 30.8589C213.272 30.8589 212.554 31.1733 212.059 31.8471L211.97 31.9818V30.9936H210.937C211.026 31.1284 211.071 31.2631 211.071 31.353C211.071 31.4877 211.116 31.7123 211.116 32.0717V36.9228C211.116 37.3271 211.026 37.6865 210.892 37.956H212.149C212.059 37.8212 212.015 37.7314 211.97 37.5966C211.925 37.4619 211.925 37.2373 211.925 36.9678V33.5091C211.925 32.7454 212.149 32.1615 212.554 31.8471C212.913 31.5327 213.452 31.3979 214.126 31.3979C214.62 31.3979 215.024 31.5776 215.294 31.892C215.563 32.2064 215.698 32.7005 215.698 33.2845V35.9796C215.698 36.1592 215.698 36.4737 215.653 36.9678C215.653 37.4169 215.608 37.7314 215.608 38.0009Z" fill="white"/>
  <path d="M82.5599 46.1758C82.515 46.4902 82.3802 47.3886 82.2455 48.826C82.1557 49.8142 82.0658 50.7574 82.0209 51.7007H80.853C80.8979 51.2965 81.0327 50.3532 81.2124 48.826C81.3022 47.7928 81.392 46.9394 81.392 46.1758H82.5599Z" fill="white"/>
  <path d="M87.1413 48.7811C87.1413 49.0507 87.0964 49.4998 87.0065 50.1736C86.9167 50.8474 86.8718 51.3415 86.8718 51.6559L85.7937 51.7008C85.7937 51.5661 85.8386 51.1618 85.9285 50.488C86.0183 49.8143 86.0632 49.3651 86.0632 49.0506C86.0632 48.7362 86.0183 48.5565 85.9285 48.4218C85.8386 48.332 85.7039 48.2421 85.5242 48.2421C85.2996 48.2421 85.0301 48.4218 84.8055 48.7362C84.5809 49.0506 84.4462 49.4998 84.4013 49.949C84.3563 50.5779 84.3114 51.1169 84.2665 51.5661L83.1885 51.611C83.3681 50.1287 83.5029 49.1405 83.5029 48.6464C83.5029 48.332 83.458 47.9726 83.4131 47.5683L84.4462 47.4785C84.4462 47.7031 84.4911 48.0175 84.4911 48.332H84.536C84.8505 47.748 85.3446 47.4336 86.0183 47.4336C86.7819 47.5234 87.1413 47.9277 87.1413 48.7811Z" fill="white"/>
  <path d="M91.7233 47.6133C91.7233 47.8379 91.4089 48.5566 90.78 49.7244C90.1512 50.8923 89.8368 51.5212 89.8368 51.7008H88.7587C88.7587 51.2966 88.624 50.6228 88.3095 49.6346C87.9951 48.6464 87.8604 48.0175 87.8604 47.6582L89.0282 47.6133C89.0282 47.8828 89.1181 48.4218 89.2528 49.1405C89.4325 49.9041 89.4774 50.3982 89.4774 50.6228H89.5223C89.5223 50.533 89.702 50.0838 90.0613 49.2753C90.4207 48.4667 90.6004 47.9277 90.6004 47.6582L91.7233 47.6133Z" fill="white"/>
  <path d="M95.7209 48.5116C95.7209 49.3651 94.8225 49.7693 93.0258 49.8143C93.0258 50.1736 93.1156 50.488 93.2504 50.6677C93.3851 50.8474 93.6097 50.9372 93.9691 50.9372C94.4183 50.9372 94.9124 50.8025 95.4065 50.488L95.2717 51.3415C94.8674 51.6559 94.3284 51.7907 93.6547 51.7907C93.0707 51.7907 92.6665 51.611 92.3969 51.2516C92.1274 50.8923 91.9927 50.4431 91.9927 49.8592C91.9927 49.1405 92.2173 48.5116 92.6664 48.1074C93.1156 47.6582 93.6547 47.4336 94.3284 47.4336C94.7776 47.4336 95.092 47.5234 95.3615 47.7031C95.5861 47.9277 95.7209 48.1972 95.7209 48.5116ZM94.7776 48.6015C94.7776 48.332 94.553 48.1972 94.1488 48.1972C93.9242 48.1972 93.6996 48.287 93.475 48.4667C93.2504 48.6464 93.1156 48.9159 93.0707 49.2303C94.1937 49.1854 94.7776 49.0057 94.7776 48.6015Z" fill="white"/>
  <path d="M99.0896 47.5684L98.865 48.4218C98.5506 48.332 98.2361 48.287 97.8768 48.287C97.4276 48.287 97.203 48.4218 97.203 48.6913C97.203 48.871 97.4276 49.0507 97.8319 49.1854C98.5506 49.4998 98.9548 49.9041 98.9548 50.3982C98.9548 51.2966 98.326 51.7907 97.0233 51.7907C96.5742 51.7907 96.2148 51.7457 95.9004 51.6559L96.125 50.8025C96.4394 50.9372 96.7538 50.9821 97.1132 50.9821C97.6971 50.9821 98.0115 50.8474 98.0115 50.5779C98.0115 50.3982 97.787 50.1736 97.3827 49.9939C97.0233 49.8592 96.7988 49.6795 96.6191 49.5448C96.3945 49.3202 96.2597 49.0956 96.2597 48.7811C96.2597 48.332 96.4394 48.0175 96.7538 47.7929C97.0683 47.5684 97.4725 47.4785 97.9666 47.4785C98.4607 47.4785 98.8201 47.5234 99.0896 47.5684Z" fill="white"/>
  <path d="M102.234 47.703L102.099 48.5565C101.695 48.5565 101.381 48.5115 101.111 48.5115C100.976 49.2752 100.932 49.8591 100.932 50.2184C100.932 50.488 100.976 50.7125 101.021 50.8024C101.066 50.8922 101.201 50.9371 101.336 50.9371C101.605 50.9371 101.83 50.8473 102.144 50.6676L102.01 51.4312C101.74 51.6109 101.426 51.7457 101.066 51.7457C100.662 51.7457 100.393 51.6558 100.213 51.4312C100.033 51.2516 99.9433 50.8922 99.9433 50.443C99.9433 50.0837 100.033 49.4548 100.168 48.4666C100.033 48.4666 99.8535 48.4666 99.584 48.5115L99.7187 47.6581C99.9433 47.6581 100.123 47.703 100.303 47.703C100.348 47.5233 100.393 47.1191 100.482 46.5351L101.426 46.4004C101.381 46.6699 101.291 47.1191 101.246 47.703C101.471 47.703 101.785 47.703 102.234 47.703Z" fill="white"/>
  <path d="M104.255 47.5684C104.255 47.6583 104.21 47.9278 104.165 48.4219C104.076 48.916 104.031 49.3203 104.031 49.6347C103.986 50.2186 103.896 50.8924 103.896 51.656L102.818 51.7009C102.863 51.3416 102.953 50.6678 103.087 49.6347C103.132 49.0957 103.177 48.6016 103.177 48.1524C103.177 47.9727 103.177 47.793 103.177 47.7032L104.255 47.5684ZM104.57 46.2658C104.57 46.4904 104.48 46.6701 104.345 46.8498C104.21 46.9845 103.986 47.0743 103.761 47.0743C103.581 47.0743 103.447 47.0294 103.357 46.8947C103.267 46.8048 103.222 46.6701 103.222 46.4904C103.222 46.2658 103.312 46.0861 103.447 45.9065C103.581 45.7717 103.806 45.6819 104.031 45.6819C104.39 45.7268 104.57 45.9065 104.57 46.2658Z" fill="white"/>
  <path d="M108.747 48.7811C108.747 49.0507 108.702 49.4998 108.612 50.1736C108.522 50.8474 108.477 51.3415 108.477 51.6559L107.399 51.7008C107.399 51.5661 107.444 51.1618 107.534 50.488C107.624 49.8143 107.669 49.3651 107.669 49.0506C107.669 48.7362 107.624 48.5565 107.534 48.4218C107.444 48.332 107.309 48.2421 107.13 48.2421C106.905 48.2421 106.636 48.4218 106.411 48.7362C106.186 49.0506 106.052 49.4998 106.007 49.949C105.962 50.5779 105.917 51.1169 105.872 51.5661L104.794 51.611C104.974 50.1287 105.108 49.1405 105.108 48.6464C105.108 48.332 105.063 47.9726 105.019 47.5683L106.052 47.4785C106.052 47.7031 106.097 48.0175 106.097 48.332H106.141C106.456 47.748 106.95 47.4336 107.624 47.4336C108.387 47.5234 108.747 47.9277 108.747 48.7811Z" fill="white"/>
  <path d="M113.868 47.0742L113.688 47.8827C113.284 47.8827 113.014 47.9277 112.88 48.0624V48.1073C113.014 48.287 113.059 48.5116 113.059 48.7362C113.059 49.2303 112.88 49.5896 112.52 49.8591C112.161 50.1286 111.712 50.2634 111.218 50.2634C110.948 50.2634 110.723 50.2185 110.544 50.1736C110.409 50.3083 110.319 50.3982 110.319 50.5329C110.319 50.6677 110.364 50.7575 110.499 50.8024C110.634 50.8473 111.083 50.8923 111.891 50.8923C112.745 50.8923 113.194 51.2067 113.194 51.8355C113.194 52.4195 112.924 52.9136 112.43 53.2729C111.936 53.6323 111.352 53.8119 110.634 53.8119C110.095 53.8119 109.69 53.7221 109.421 53.5424C109.151 53.3628 109.017 53.0933 109.017 52.7339C109.017 52.2398 109.286 51.8805 109.825 51.566V51.5211C109.645 51.3864 109.556 51.2067 109.556 50.9821C109.556 50.6677 109.735 50.3532 110.095 50.0837V50.0388C109.96 49.949 109.825 49.8142 109.69 49.6345C109.556 49.4549 109.511 49.2303 109.511 49.0506C109.511 48.5565 109.69 48.1522 110.095 47.9277C110.499 47.6581 110.948 47.5234 111.487 47.5234C111.891 47.5234 112.251 47.6132 112.52 47.7929H112.565C112.7 47.2539 112.969 46.9395 113.374 46.9395C113.598 46.9844 113.733 46.9844 113.868 47.0742ZM112.206 52.2398C112.206 52.0601 112.161 51.9703 112.026 51.8805C111.891 51.8355 111.622 51.7906 111.218 51.7906C110.948 51.7906 110.679 51.7906 110.409 51.7457C110.095 51.9254 109.96 52.1949 109.96 52.5542C109.96 53.0034 110.229 53.2729 110.768 53.2729C111.173 53.2729 111.532 53.1831 111.802 53.0034C112.071 52.8237 112.206 52.5542 112.206 52.2398ZM112.071 48.826C112.071 48.6014 111.981 48.4218 111.846 48.3319C111.712 48.1972 111.532 48.1522 111.352 48.1522C111.128 48.1522 110.948 48.2421 110.768 48.3768C110.589 48.5565 110.544 48.7362 110.544 49.0057C110.544 49.2303 110.634 49.41 110.768 49.4998C110.903 49.5896 111.083 49.6795 111.263 49.6795C111.487 49.6795 111.667 49.5896 111.846 49.4549C112.026 49.3201 112.071 49.0506 112.071 48.826Z" fill="white"/>
  <path d="M117.327 47.5684C117.327 47.6583 117.282 47.9278 117.237 48.4219C117.147 48.916 117.102 49.3203 117.102 49.6347C117.057 50.2186 116.967 50.8924 116.967 51.656L115.889 51.7009C115.934 51.3416 116.024 50.6678 116.159 49.6347C116.204 49.0957 116.249 48.6016 116.249 48.1524C116.249 47.9727 116.249 47.793 116.249 47.7032L117.327 47.5684ZM117.686 46.2658C117.686 46.4904 117.596 46.6701 117.461 46.8498C117.327 46.9845 117.102 47.0743 116.877 47.0743C116.698 47.0743 116.563 47.0294 116.473 46.8947C116.383 46.8048 116.338 46.6701 116.338 46.4904C116.338 46.2658 116.428 46.0861 116.563 45.9065C116.698 45.7717 116.922 45.6819 117.147 45.6819C117.506 45.7268 117.686 45.9065 117.686 46.2658Z" fill="white"/>
  <path d="M121.863 48.7811C121.863 49.0507 121.818 49.4998 121.728 50.1736C121.638 50.8474 121.593 51.3415 121.593 51.6559L120.515 51.7008C120.515 51.5661 120.56 51.1618 120.65 50.488C120.74 49.8143 120.785 49.3651 120.785 49.0506C120.785 48.7362 120.74 48.5565 120.65 48.4218C120.56 48.332 120.426 48.2421 120.246 48.2421C120.021 48.2421 119.752 48.4218 119.527 48.7362C119.303 49.0506 119.168 49.4998 119.123 49.949C119.078 50.5779 119.033 51.1169 118.988 51.5661L117.91 51.611C118.09 50.1287 118.225 49.1405 118.225 48.6464C118.225 48.332 118.18 47.9726 118.135 47.5683L119.168 47.4785C119.168 47.7031 119.213 48.0175 119.213 48.332H119.258C119.572 47.748 120.066 47.4336 120.74 47.4336C121.504 47.5234 121.863 47.9277 121.863 48.7811Z" fill="white"/>
  <path d="M128.511 47.5684C128.466 47.8379 128.331 48.8261 128.152 50.4431C128.062 51.1169 127.972 52.15 127.882 53.5425L126.849 53.5874C126.894 53.273 126.984 52.6441 127.074 51.6559C127.118 51.3864 127.163 51.1169 127.208 50.8923H127.163C126.849 51.4762 126.355 51.7907 125.681 51.7907C125.277 51.7907 124.962 51.6559 124.738 51.3415C124.513 51.0271 124.378 50.6677 124.378 50.1287C124.378 49.41 124.558 48.7811 124.962 48.2421C125.367 47.748 125.861 47.4785 126.534 47.4785C126.939 47.4785 127.253 47.5684 127.478 47.748H127.523L127.657 47.6582L128.511 47.5684ZM127.433 48.4667C127.208 48.332 126.984 48.287 126.759 48.287C126.355 48.287 126.04 48.4667 125.816 48.7811C125.591 49.0956 125.501 49.4998 125.501 49.949C125.501 50.6677 125.726 51.0271 126.175 51.0271C126.445 51.0271 126.714 50.8474 126.939 50.488C127.163 50.1287 127.298 49.7244 127.343 49.3202L127.433 48.4667Z" fill="white"/>
  <path d="M133.093 47.5684C132.913 49.1405 132.779 50.1736 132.779 50.6677C132.779 50.9821 132.779 51.2966 132.868 51.611L131.835 51.7458C131.835 51.5212 131.79 51.2517 131.79 50.8923H131.745C131.431 51.4762 130.937 51.7907 130.308 51.7907C129.589 51.7907 129.23 51.3864 129.23 50.533C129.23 50.2635 129.275 49.8143 129.32 49.1405C129.41 48.4667 129.41 47.9726 129.41 47.6582L130.533 47.5684C130.533 47.7031 130.488 48.1074 130.398 48.7812C130.308 49.4549 130.263 49.949 130.263 50.2185C130.263 50.533 130.308 50.7126 130.398 50.8474C130.488 50.9821 130.622 51.0271 130.802 51.0271C131.027 51.0271 131.296 50.8474 131.521 50.533C131.745 50.2185 131.88 49.7694 131.925 49.3202C132.015 48.5566 132.06 47.9726 132.06 47.7031L133.093 47.5684Z" fill="white"/>
  <path d="M137.495 47.4336C137.27 48.9608 137.135 50.0389 137.135 50.6228C137.135 50.9372 137.18 51.2516 137.225 51.611L136.192 51.7457C136.192 51.5212 136.147 51.2516 136.147 50.9372H136.102C135.788 51.5212 135.339 51.7907 134.71 51.7907C134.351 51.7907 134.081 51.6559 133.901 51.3864C133.722 51.1169 133.632 50.7575 133.632 50.3084C133.632 49.6346 133.856 49.0506 134.351 48.5116C134.8 47.9726 135.518 47.7031 136.507 47.6582L136.686 47.5234L137.495 47.4336ZM136.417 48.332C135.833 48.332 135.384 48.5116 135.114 48.8261C134.845 49.1854 134.71 49.6346 134.71 50.2185C134.71 50.7575 134.89 50.9821 135.204 50.9821C135.473 50.9821 135.698 50.8025 135.923 50.4431C136.147 50.0838 136.282 49.7244 136.327 49.3651C136.327 49.0506 136.372 48.6913 136.417 48.332Z" fill="white"/>
  <path d="M139.786 45.637C139.786 45.7717 139.741 46.1311 139.651 46.7599C139.561 47.3888 139.471 47.9278 139.426 48.5117C139.291 49.8144 139.202 50.8475 139.157 51.656L138.079 51.7009C138.079 51.656 138.124 51.2967 138.213 50.6229C138.303 49.9491 138.393 49.2304 138.483 48.5117C138.618 47.3888 138.663 46.4904 138.663 45.7268L139.786 45.637Z" fill="white"/>
  <path d="M141.762 47.5684C141.762 47.6583 141.717 47.9278 141.672 48.4219C141.582 48.916 141.538 49.3203 141.538 49.6347C141.493 50.2186 141.403 50.8924 141.403 51.656L140.325 51.7009C140.37 51.3416 140.459 50.6678 140.594 49.6347C140.639 49.0957 140.684 48.6016 140.684 48.1524C140.684 47.9727 140.684 47.793 140.684 47.7032L141.762 47.5684ZM142.077 46.2658C142.077 46.4904 141.987 46.6701 141.852 46.8498C141.717 46.9845 141.493 47.0743 141.268 47.0743C141.088 47.0743 140.954 47.0294 140.864 46.8947C140.774 46.8048 140.729 46.6701 140.729 46.4904C140.729 46.2658 140.819 46.0861 140.954 45.9065C141.088 45.7717 141.313 45.6819 141.538 45.6819C141.897 45.7268 142.077 45.9065 142.077 46.2658Z" fill="white"/>
  <path d="M144.951 47.703L144.816 48.5565C144.412 48.5565 144.098 48.5115 143.828 48.5115C143.693 49.2752 143.648 49.8591 143.648 50.2184C143.648 50.488 143.693 50.7125 143.738 50.8024C143.783 50.8922 143.918 50.9371 144.053 50.9371C144.322 50.9371 144.547 50.8473 144.861 50.6676L144.726 51.4312C144.457 51.6109 144.142 51.7457 143.783 51.7457C143.379 51.7457 143.109 51.6558 142.93 51.4312C142.75 51.2516 142.66 50.8922 142.66 50.443C142.66 50.0837 142.75 49.4548 142.885 48.4666C142.75 48.4666 142.57 48.4666 142.301 48.5115L142.436 47.6581C142.66 47.6581 142.84 47.703 143.019 47.703C143.064 47.5233 143.109 47.1191 143.199 46.5351L144.142 46.4004C144.098 46.6699 144.008 47.1191 143.963 47.703C144.187 47.703 144.502 47.703 144.951 47.703Z" fill="white"/>
  <path d="M149.263 47.6133C149.263 48.0175 148.994 48.7362 148.41 49.7694C147.871 50.8025 147.512 51.4762 147.467 51.7008C147.197 52.4195 146.928 52.8687 146.613 53.1382C146.299 53.4077 145.85 53.5425 145.266 53.5425V52.734C145.625 52.734 145.939 52.5992 146.164 52.3746C146.433 52.15 146.568 51.8805 146.568 51.5212C146.568 51.1169 146.389 50.488 146.074 49.4998C145.76 48.5116 145.58 47.9277 145.58 47.6133L146.793 47.5684C146.793 47.9726 146.883 48.5116 147.017 49.1854C147.197 49.9041 147.242 50.3533 147.242 50.6228H147.287C147.287 50.533 147.467 50.0838 147.736 49.3651C148.051 48.6015 148.185 48.0625 148.185 47.6582L149.263 47.6133Z" fill="white"/>
  <path d="M155.327 48.7812C155.327 49.0507 155.282 49.4999 155.193 50.1737C155.103 50.8475 155.058 51.3416 155.058 51.656L153.98 51.7009C153.98 51.5662 154.025 51.1619 154.115 50.4881C154.204 49.8144 154.249 49.3652 154.249 49.0507C154.249 48.7363 154.204 48.5566 154.115 48.4219C154.025 48.3321 153.89 48.2422 153.71 48.2422C153.486 48.2422 153.216 48.4219 152.992 48.7363C152.767 49.0507 152.632 49.4999 152.587 49.9491C152.542 50.578 152.497 51.117 152.453 51.5662L151.375 51.6111C151.419 51.2517 151.554 50.1737 151.734 48.4219C151.869 47.3438 151.914 46.4006 151.914 45.637L153.081 45.5471C153.081 45.6819 153.036 46.0861 152.902 46.8497C152.812 47.5684 152.722 48.0625 152.677 48.2871H152.722C153.036 47.7032 153.531 47.3888 154.204 47.3888C154.968 47.5235 155.327 47.9278 155.327 48.7812Z" fill="white"/>
  <path d="M160.133 49.3651C160.133 50.0388 159.909 50.6228 159.46 51.1169C159.011 51.611 158.471 51.8356 157.753 51.8356C157.259 51.8356 156.854 51.6559 156.495 51.2966C156.136 50.9372 155.956 50.488 155.956 49.9041C155.956 49.2303 156.181 48.6464 156.63 48.1523C157.079 47.6582 157.618 47.4336 158.337 47.4336C158.831 47.4336 159.235 47.6133 159.55 47.9277C159.954 48.287 160.133 48.7811 160.133 49.3651ZM159.055 49.4549C159.055 49.0956 158.966 48.8261 158.831 48.6015C158.696 48.3769 158.471 48.287 158.202 48.287C157.888 48.287 157.618 48.4667 157.393 48.7811C157.169 49.0956 157.079 49.4998 157.079 49.9041C157.079 50.2634 157.169 50.5329 157.304 50.7575C157.438 50.9821 157.663 51.072 157.932 51.072C158.292 51.072 158.561 50.8923 158.741 50.5779C158.966 50.2185 159.055 49.8592 159.055 49.4549Z" fill="white"/>
  <path d="M164.67 47.5684C164.49 49.1405 164.356 50.1736 164.356 50.6677C164.356 50.9821 164.356 51.2966 164.446 51.611L163.412 51.7458C163.412 51.5212 163.367 51.2517 163.367 50.8923H163.323C163.008 51.4762 162.514 51.7907 161.885 51.7907C161.166 51.7907 160.807 51.3864 160.807 50.533C160.807 50.2635 160.852 49.8143 160.897 49.1405C160.987 48.4667 160.987 47.9726 160.987 47.6582L162.11 47.5684C162.11 47.7031 162.065 48.1074 161.975 48.7812C161.885 49.4549 161.84 49.949 161.84 50.2185C161.84 50.533 161.885 50.7126 161.975 50.8474C162.065 50.9821 162.2 51.0271 162.379 51.0271C162.604 51.0271 162.873 50.8474 163.098 50.533C163.323 50.2185 163.457 49.7694 163.502 49.3202C163.592 48.5566 163.637 47.9726 163.637 47.7031L164.67 47.5684Z" fill="white"/>
  <path d="M168.174 47.5684L167.949 48.4218C167.635 48.332 167.32 48.287 166.961 48.287C166.512 48.287 166.287 48.4218 166.287 48.6913C166.287 48.871 166.512 49.0507 166.916 49.1854C167.635 49.4998 168.039 49.9041 168.039 50.3982C168.039 51.2966 167.41 51.7907 166.107 51.7907C165.658 51.7907 165.299 51.7457 164.984 51.6559L165.209 50.8025C165.523 50.9372 165.838 50.9821 166.197 50.9821C166.781 50.9821 167.096 50.8474 167.096 50.5779C167.096 50.3982 166.871 50.1736 166.467 49.9939C166.107 49.8592 165.883 49.6795 165.703 49.5448C165.478 49.3202 165.344 49.0956 165.344 48.7811C165.344 48.332 165.523 48.0175 165.838 47.7929C166.152 47.5684 166.557 47.4785 167.051 47.4785C167.545 47.4785 167.949 47.5234 168.174 47.5684Z" fill="white"/>
  <path d="M170.195 47.5684C170.195 47.6583 170.15 47.9278 170.105 48.4219C170.016 48.916 169.971 49.3203 169.971 49.6347C169.926 50.2186 169.836 50.8924 169.836 51.656L168.758 51.7009C168.803 51.3416 168.893 50.6678 169.027 49.6347C169.072 49.0957 169.117 48.6016 169.117 48.1524C169.117 47.9727 169.117 47.793 169.117 47.7032L170.195 47.5684ZM170.51 46.2658C170.51 46.4904 170.42 46.6701 170.285 46.8498C170.15 46.9845 169.926 47.0743 169.701 47.0743C169.521 47.0743 169.387 47.0294 169.297 46.8947C169.207 46.8048 169.162 46.6701 169.162 46.4904C169.162 46.2658 169.252 46.0861 169.387 45.9065C169.521 45.7717 169.746 45.6819 169.971 45.6819C170.33 45.7268 170.51 45.9065 170.51 46.2658Z" fill="white"/>
  <path d="M174.687 48.7811C174.687 49.0507 174.642 49.4998 174.552 50.1736C174.463 50.8474 174.418 51.3415 174.418 51.6559L173.34 51.7008C173.34 51.5661 173.385 51.1618 173.474 50.488C173.564 49.8143 173.609 49.3651 173.609 49.0506C173.609 48.7362 173.564 48.5565 173.474 48.4218C173.385 48.332 173.25 48.2421 173.07 48.2421C172.846 48.2421 172.576 48.4218 172.351 48.7362C172.127 49.0506 171.992 49.4998 171.947 49.949C171.902 50.5779 171.857 51.1169 171.812 51.5661L170.734 51.611C170.914 50.1287 171.049 49.1405 171.049 48.6464C171.049 48.332 171.004 47.9726 170.959 47.5683L171.992 47.4785C171.992 47.7031 172.037 48.0175 172.037 48.332H172.082C172.396 47.748 172.89 47.4336 173.564 47.4336C174.328 47.5234 174.687 47.9277 174.687 48.7811Z" fill="white"/>
  <path d="M179.808 47.0742L179.628 47.8827C179.224 47.8827 178.954 47.9277 178.82 48.0624V48.1073C178.954 48.287 178.999 48.5116 178.999 48.7362C178.999 49.2303 178.82 49.5896 178.46 49.8591C178.101 50.1286 177.652 50.2634 177.158 50.2634C176.888 50.2634 176.663 50.2185 176.484 50.1736C176.349 50.3083 176.259 50.3982 176.259 50.5329C176.259 50.6677 176.304 50.7575 176.439 50.8024C176.574 50.8473 177.023 50.8923 177.831 50.8923C178.685 50.8923 179.134 51.2067 179.134 51.8355C179.134 52.4195 178.864 52.9136 178.37 53.2729C177.876 53.6323 177.292 53.8119 176.574 53.8119C176.035 53.8119 175.63 53.7221 175.361 53.5424C175.091 53.3628 174.957 53.0933 174.957 52.7339C174.957 52.2398 175.226 51.8805 175.765 51.566V51.5211C175.585 51.3864 175.496 51.2067 175.496 50.9821C175.496 50.6677 175.675 50.3532 176.035 50.0837V50.0388C175.9 49.949 175.765 49.8142 175.63 49.6345C175.496 49.4549 175.451 49.2303 175.451 49.0506C175.451 48.5565 175.63 48.1522 176.035 47.9277C176.439 47.6581 176.888 47.5234 177.427 47.5234C177.831 47.5234 178.191 47.6132 178.46 47.7929H178.505C178.64 47.2539 178.909 46.9395 179.314 46.9395C179.538 46.9844 179.673 46.9844 179.808 47.0742ZM178.146 52.2398C178.146 52.0601 178.101 51.9703 177.966 51.8805C177.831 51.8355 177.562 51.7906 177.158 51.7906C176.888 51.7906 176.619 51.7906 176.349 51.7457C176.035 51.9254 175.9 52.1949 175.9 52.5542C175.9 53.0034 176.169 53.2729 176.708 53.2729C177.113 53.2729 177.472 53.1831 177.741 53.0034C178.011 52.8237 178.146 52.5542 178.146 52.2398ZM178.056 48.826C178.056 48.6014 177.966 48.4218 177.831 48.3319C177.697 48.1972 177.517 48.1522 177.337 48.1522C177.113 48.1522 176.933 48.2421 176.753 48.3768C176.574 48.5565 176.529 48.7362 176.529 49.0057C176.529 49.2303 176.619 49.41 176.753 49.4998C176.888 49.5896 177.068 49.6795 177.247 49.6795C177.472 49.6795 177.652 49.5896 177.831 49.4549C178.011 49.3201 178.056 49.0506 178.056 48.826Z" fill="white"/>
  <path d="M184.704 47.5684L184.479 48.4218C184.165 48.332 183.85 48.287 183.491 48.287C183.042 48.287 182.817 48.4218 182.817 48.6913C182.817 48.871 183.042 49.0507 183.446 49.1854C184.165 49.4998 184.569 49.9041 184.569 50.3982C184.569 51.2966 183.94 51.7907 182.638 51.7907C182.188 51.7907 181.829 51.7457 181.515 51.6559L181.739 50.8025C182.054 50.9372 182.368 50.9821 182.727 50.9821C183.311 50.9821 183.626 50.8474 183.626 50.5779C183.626 50.3982 183.401 50.1736 182.997 49.9939C182.638 49.8592 182.413 49.6795 182.233 49.5448C182.009 49.3202 181.874 49.0956 181.874 48.7811C181.874 48.332 182.054 48.0175 182.368 47.7929C182.683 47.5684 183.087 47.4785 183.581 47.4785C184.075 47.4785 184.434 47.5234 184.704 47.5684Z" fill="white"/>
  <path d="M189.33 49.3651C189.33 50.0388 189.106 50.6228 188.656 51.1169C188.207 51.611 187.668 51.8356 186.95 51.8356C186.455 51.8356 186.051 51.6559 185.692 51.2966C185.333 50.9372 185.153 50.488 185.153 49.9041C185.153 49.2303 185.377 48.6464 185.827 48.1523C186.276 47.6582 186.815 47.4336 187.534 47.4336C188.028 47.4336 188.432 47.6133 188.746 47.9277C189.151 48.287 189.33 48.7811 189.33 49.3651ZM188.252 49.4549C188.252 49.0956 188.162 48.8261 188.028 48.6015C187.893 48.3769 187.668 48.287 187.399 48.287C187.084 48.287 186.815 48.4667 186.59 48.7811C186.366 49.0956 186.276 49.4998 186.276 49.9041C186.276 50.2634 186.366 50.5329 186.5 50.7575C186.635 50.9821 186.86 51.072 187.129 51.072C187.489 51.072 187.758 50.8923 187.938 50.5779C188.162 50.2185 188.252 49.8592 188.252 49.4549Z" fill="white"/>
  <path d="M191.577 45.637C191.577 45.7717 191.532 46.1311 191.442 46.7599C191.352 47.3888 191.262 47.9278 191.217 48.5117C191.082 49.8144 190.993 50.8475 190.948 51.656L189.87 51.7009C189.87 51.656 189.915 51.2967 190.004 50.6229C190.094 49.9491 190.184 49.2304 190.274 48.5117C190.409 47.3888 190.454 46.4904 190.454 45.7268L191.577 45.637Z" fill="white"/>
  <path d="M196.068 47.5684C195.888 49.1405 195.754 50.1736 195.754 50.6677C195.754 50.9821 195.754 51.2966 195.843 51.611L194.81 51.7458C194.81 51.5212 194.765 51.2517 194.765 50.8923H194.721C194.406 51.4762 193.912 51.7907 193.283 51.7907C192.564 51.7907 192.205 51.3864 192.205 50.533C192.205 50.2635 192.25 49.8143 192.295 49.1405C192.385 48.4667 192.385 47.9726 192.385 47.6582L193.508 47.5684C193.508 47.7031 193.463 48.1074 193.373 48.7812C193.283 49.4549 193.238 49.949 193.238 50.2185C193.238 50.533 193.283 50.7126 193.373 50.8474C193.463 50.9821 193.598 51.0271 193.777 51.0271C194.002 51.0271 194.271 50.8474 194.496 50.533C194.721 50.2185 194.855 49.7694 194.9 49.3202C194.99 48.5566 195.035 47.9726 195.035 47.7031L196.068 47.5684Z" fill="white"/>
  <path d="M199.302 47.703L199.167 48.5565C198.763 48.5565 198.449 48.5115 198.179 48.5115C198.044 49.2752 197.999 49.8591 197.999 50.2184C197.999 50.488 198.044 50.7125 198.089 50.8024C198.134 50.8922 198.269 50.9371 198.404 50.9371C198.673 50.9371 198.898 50.8473 199.212 50.6676L199.077 51.4312C198.808 51.6109 198.494 51.7457 198.134 51.7457C197.73 51.7457 197.46 51.6558 197.281 51.4312C197.101 51.2516 197.011 50.8922 197.011 50.443C197.011 50.0837 197.101 49.4548 197.236 48.4666C197.101 48.4666 196.921 48.4666 196.652 48.5115L196.787 47.6581C197.011 47.6581 197.191 47.703 197.371 47.703C197.415 47.5233 197.46 47.1191 197.55 46.5351L198.494 46.4004C198.449 46.6699 198.359 47.1191 198.314 47.703C198.538 47.703 198.853 47.703 199.302 47.703Z" fill="white"/>
  <path d="M201.324 47.5684C201.324 47.6583 201.279 47.9278 201.234 48.4219C201.144 48.916 201.099 49.3203 201.099 49.6347C201.054 50.2186 200.964 50.8924 200.964 51.656L199.886 51.7009C199.931 51.3416 200.021 50.6678 200.156 49.6347C200.201 49.0957 200.246 48.6016 200.246 48.1524C200.246 47.9727 200.246 47.793 200.246 47.7032L201.324 47.5684ZM201.638 46.2658C201.638 46.4904 201.548 46.6701 201.413 46.8498C201.279 46.9845 201.054 47.0743 200.83 47.0743C200.65 47.0743 200.515 47.0294 200.425 46.8947C200.335 46.8048 200.29 46.6701 200.29 46.4904C200.29 46.2658 200.38 46.0861 200.515 45.9065C200.65 45.7717 200.874 45.6819 201.099 45.6819C201.458 45.7268 201.638 45.9065 201.638 46.2658Z" fill="white"/>
  <path d="M205.995 49.3651C205.995 50.0388 205.77 50.6228 205.321 51.1169C204.872 51.611 204.333 51.8356 203.614 51.8356C203.12 51.8356 202.716 51.6559 202.356 51.2966C201.997 50.9372 201.817 50.488 201.817 49.9041C201.817 49.2303 202.042 48.6464 202.491 48.1523C202.94 47.6582 203.479 47.4336 204.198 47.4336C204.692 47.4336 205.096 47.6133 205.411 47.9277C205.815 48.287 205.995 48.7811 205.995 49.3651ZM204.917 49.4549C204.917 49.0956 204.827 48.8261 204.692 48.6015C204.557 48.3769 204.333 48.287 204.063 48.287C203.749 48.287 203.479 48.4667 203.255 48.7811C203.03 49.0956 202.94 49.4998 202.94 49.9041C202.94 50.2634 203.03 50.5329 203.165 50.7575C203.3 50.9821 203.524 51.072 203.794 51.072C204.153 51.072 204.423 50.8923 204.602 50.5779C204.782 50.2185 204.917 49.8592 204.917 49.4549Z" fill="white"/>
  <path d="M210.442 48.7811C210.442 49.0507 210.397 49.4998 210.307 50.1736C210.217 50.8474 210.173 51.3415 210.173 51.6559L209.095 51.7008C209.095 51.5661 209.139 51.1618 209.229 50.488C209.319 49.8143 209.364 49.3651 209.364 49.0506C209.364 48.7362 209.319 48.5565 209.229 48.4218C209.139 48.332 209.005 48.2421 208.825 48.2421C208.6 48.2421 208.331 48.4218 208.106 48.7362C207.882 49.0506 207.747 49.4998 207.702 49.949C207.657 50.5779 207.612 51.1169 207.567 51.5661L206.489 51.611C206.669 50.1287 206.804 49.1405 206.804 48.6464C206.804 48.332 206.759 47.9726 206.714 47.5683L207.747 47.4785C207.747 47.7031 207.792 48.0175 207.792 48.332H207.837C208.151 47.748 208.645 47.4336 209.319 47.4336C210.083 47.5234 210.442 47.9277 210.442 48.7811Z" fill="white"/>
  <path d="M214.08 47.5684L213.856 48.4218C213.541 48.332 213.227 48.287 212.868 48.287C212.418 48.287 212.194 48.4218 212.194 48.6913C212.194 48.871 212.418 49.0507 212.823 49.1854C213.541 49.4998 213.946 49.9041 213.946 50.3982C213.946 51.2966 213.317 51.7907 212.014 51.7907C211.565 51.7907 211.206 51.7457 210.891 51.6559L211.116 50.8025C211.43 50.9372 211.745 50.9821 212.104 50.9821C212.688 50.9821 213.002 50.8474 213.002 50.5779C213.002 50.3982 212.778 50.1736 212.373 49.9939C212.014 49.8592 211.789 49.6795 211.61 49.5448C211.385 49.3202 211.25 49.0956 211.25 48.7811C211.25 48.332 211.43 48.0175 211.745 47.7929C212.059 47.5684 212.463 47.4785 212.957 47.4785C213.451 47.4785 213.811 47.5234 214.08 47.5684Z" fill="white"/>
  <path d="M215.967 50.8473C215.967 51.0719 215.877 51.2965 215.742 51.4761C215.607 51.6558 215.383 51.7456 215.158 51.7456C214.978 51.7456 214.844 51.7007 214.754 51.566C214.664 51.4312 214.619 51.2965 214.619 51.1168C214.619 50.8922 214.709 50.6676 214.844 50.5328C215.023 50.3532 215.203 50.3083 215.428 50.3083C215.742 50.2633 215.967 50.443 215.967 50.8473Z" fill="white"/>
</svg>