<svg xmlns="http://www.w3.org/2000/svg" width="24" height="24" viewBox="0 0 24 24" fill="none">
  <g clip-path="url(#clip0_13602_11355)">
    <path d="M6 0C4.34531 0 3 1.34531 3 3V21C3 22.6547 4.34531 24 6 24H18C19.6547 24 21 22.6547 21 21V7.5H15C14.1703 7.5 13.5 6.82969 13.5 6V0H6ZM15 0V6H21L15 0ZM8.20312 12.0516L9.45938 16.2328L10.9406 12C11.1 11.55 11.5266 11.2453 12.0047 11.2453C12.4828 11.2453 12.9094 11.5453 13.0688 12L14.55 16.2328L15.7969 12.0516C15.975 11.4563 16.6031 11.1187 17.1984 11.2969C17.7937 11.475 18.1313 12.1031 17.9531 12.6984L15.7031 20.1984C15.5625 20.6672 15.1406 20.9906 14.6531 21C14.1656 21.0094 13.725 20.7094 13.5656 20.2453L12 15.7781L10.4391 20.2453C10.2797 20.7047 9.83906 21.0094 9.35156 21C8.86406 20.9906 8.4375 20.6672 8.30156 20.1984L6.05156 12.6984C5.87344 12.1031 6.21094 11.475 6.80625 11.2969C7.40156 11.1187 8.02969 11.4563 8.20781 12.0516H8.20312Z" fill="#153683"/>
  </g>
  <defs>
    <clipPath id="clip0_13602_11355">
      <rect width="24" height="24" fill="white"/>
    </clipPath>
  </defs>
</svg>