<svg xmlns="http://www.w3.org/2000/svg" width="24" height="24" viewBox="0 0 24 24" fill="none">
  <g clip-path="url(#clip0_13602_11351)">
    <path d="M6 0C4.34531 0 3 1.34531 3 3V21C3 22.6547 4.34531 24 6 24H18C19.6547 24 21 22.6547 21 21V7.5H15C14.1703 7.5 13.5 6.82969 13.5 6V0H6ZM15 0V6H21L15 0ZM10.2984 11.7281L12 14.1609L13.7016 11.7281C14.0578 11.2172 14.7609 11.0953 15.2672 11.4516C15.7734 11.8078 15.9 12.5109 15.5438 13.0172L13.3734 16.125L15.5484 19.2281C15.9047 19.7391 15.7828 20.4375 15.2719 20.7938C14.7609 21.15 14.0625 21.0281 13.7062 20.5172L12 18.0844L10.2984 20.5172C9.94219 21.0281 9.23906 21.15 8.73281 20.7938C8.22656 20.4375 8.1 19.7344 8.45625 19.2281L10.6266 16.125L8.45156 13.0219C8.09531 12.5109 8.21719 11.8125 8.72812 11.4562C9.23906 11.1 9.9375 11.2219 10.2938 11.7328L10.2984 11.7281Z" fill="#153683"/>
  </g>
  <defs>
    <clipPath id="clip0_13602_11351">
      <rect width="24" height="24" fill="white"/>
    </clipPath>
  </defs>
</svg>